<svg width="137" height="83" viewBox="0 0 137 83" fill="none" xmlns="http://www.w3.org/2000/svg">
<path d="M30.56 33.232C30.688 34.064 30.752 34.736 30.752 35.248C30.816 35.76 30.848 36.272 30.848 36.784C30.848 38.384 30.624 40.272 30.176 42.448C29.792 44.624 29.088 46.704 28.064 48.688C27.104 50.608 25.792 52.272 24.128 53.68C22.528 55.024 20.48 55.696 17.984 55.696C15.68 55.696 13.504 55.056 11.456 53.776C9.408 52.432 7.584 50.736 5.984 48.688C4.384 46.576 3.104 44.24 2.144 41.68C1.248 39.056 0.8 36.464 0.8 33.904C0.8 30.192 1.024 27.024 1.472 24.4C1.984 21.712 2.688 19.376 3.584 17.392C3.584 17.2 3.456 17.008 3.2 16.816C3.008 16.624 2.912 16.368 2.912 16.048C2.912 15.728 3.2 15.312 3.776 14.8C4.416 14.288 5.152 13.808 5.984 13.36C6.88 12.848 7.744 12.432 8.576 12.112C9.472 11.728 10.144 11.536 10.592 11.536C10.848 11.536 11.264 11.664 11.84 11.92C12.48 12.176 13.28 12.304 14.24 12.304C14.56 12.304 14.88 12.272 15.2 12.208C15.52 12.144 15.872 12.112 16.256 12.112C17.6 12.112 19.04 12.752 20.576 14.032C22.176 15.248 23.648 16.848 24.992 18.832C26.4 20.816 27.584 23.088 28.544 25.648C29.568 28.144 30.24 30.672 30.56 33.232ZM26.72 36.976C26.72 35.76 26.464 34.032 25.952 31.792C25.44 29.488 24.672 27.248 23.648 25.072C22.624 22.832 21.376 20.88 19.904 19.216C18.496 17.552 16.896 16.72 15.104 16.72C14.976 16.72 14.72 16.72 14.336 16.72C14.016 16.656 13.632 16.624 13.184 16.624C12.736 16.56 12.32 16.528 11.936 16.528C11.552 16.464 11.328 16.432 11.264 16.432C10.24 16.432 9.344 16.912 8.576 17.872C7.872 18.832 7.264 20.08 6.752 21.616C6.304 23.152 5.952 24.912 5.696 26.896C5.44 28.88 5.312 30.864 5.312 32.848C5.312 33.552 5.504 34.928 5.888 36.976C6.272 38.96 6.944 41.04 7.904 43.216C8.928 45.328 10.272 47.216 11.936 48.88C13.6 50.544 15.712 51.376 18.272 51.376C20 51.376 21.408 50.864 22.496 49.84C23.584 48.752 24.416 47.44 24.992 45.904C25.632 44.368 26.08 42.8 26.336 41.2C26.592 39.536 26.72 38.128 26.72 36.976ZM51.3268 55.216C51.3268 55.728 51.1348 56.112 50.7508 56.368C50.3668 56.624 49.9188 56.752 49.4068 56.752C48.8308 56.752 48.2228 56.208 47.5828 55.12C47.0068 54.032 46.4308 52.656 45.8548 50.992C45.2788 49.328 44.7348 47.536 44.2228 45.616C43.7108 43.632 43.2628 41.808 42.8788 40.144C42.4948 38.416 42.1748 36.976 41.9188 35.824C41.7268 34.672 41.6308 34.032 41.6308 33.904C41.6308 33.648 41.5028 32.976 41.2468 31.888C41.0548 30.8 40.7668 29.104 40.3828 26.8C40.0628 24.496 39.6788 21.52 39.2308 17.872C38.8468 14.16 38.4308 9.584 37.9828 4.144C37.9828 3.568 38.0788 2.832 38.2708 1.936C38.4628 1.04 38.9108 0.591995 39.6148 0.591995C40.5108 0.591995 41.1828 1.2 41.6308 2.41599C42.1428 3.632 42.5268 5.136 42.7828 6.928C43.1028 8.72 43.3268 10.608 43.4548 12.592C43.5828 14.512 43.7428 16.208 43.9348 17.68C44.1908 19.728 44.4148 21.584 44.6068 23.248C44.8628 24.912 45.0868 26.576 45.2788 28.24C45.5348 29.84 45.8228 31.536 46.1428 33.328C46.5268 35.12 46.9748 37.104 47.4868 39.28L51.3268 55.216ZM82.6168 49.552C82.6168 50.256 82.3608 50.736 81.8488 50.992C81.3368 51.248 81.0808 51.6 81.0808 52.048C81.0168 51.984 81.1448 52.336 81.4648 53.104C81.7848 53.872 82.0728 54.672 82.3288 55.504C82.7768 57.232 83.1608 58.736 83.4808 60.016C83.8648 61.296 84.1528 62.48 84.3448 63.568C84.6008 64.656 84.7928 65.744 84.9208 66.832C85.0488 67.92 85.1128 69.136 85.1128 70.48C85.1128 71.824 84.8888 73.2 84.4408 74.608C83.9928 76.016 83.3528 77.264 82.5208 78.352C81.6888 79.44 80.6648 80.336 79.4488 81.04C78.2328 81.744 76.8568 82.096 75.3208 82.096C72.9528 82.096 71.0648 81.616 69.6568 80.656C68.3128 79.696 67.2888 78.608 66.5848 77.392C65.8808 76.176 65.4328 74.96 65.2408 73.744C65.0488 72.592 64.9528 71.824 64.9528 71.44C64.9528 69.072 65.5608 66.704 66.7768 64.336C67.9928 61.968 69.3368 59.824 70.8088 57.904C72.2808 55.984 73.6248 54.384 74.8408 53.104C76.0568 51.824 76.6648 51.088 76.6648 50.896L75.6088 47.728C74.9688 48.496 74.3928 49.36 73.8808 50.32C73.4328 51.216 72.9208 52.08 72.3448 52.912C71.8328 53.68 71.1928 54.352 70.4248 54.928C69.7208 55.44 68.8248 55.696 67.7368 55.696C66.5848 55.696 65.4328 55.344 64.2808 54.64C63.1288 53.936 62.1048 52.88 61.2088 51.472C60.3128 50.064 59.5768 48.368 59.0008 46.384C58.4888 44.4 58.2328 42.096 58.2328 39.472C58.2328 38 58.4568 36.176 58.9048 34C59.3528 31.76 60.0568 29.616 61.0168 27.568C61.9768 25.52 63.1608 23.792 64.5688 22.384C66.0408 20.912 67.7368 20.176 69.6568 20.176C70.7448 20.176 71.7368 20.368 72.6328 20.752C73.5928 21.136 74.0728 21.616 74.0728 22.192C74.0728 22.704 73.9768 23.12 73.7848 23.44C73.5928 23.76 73.3368 24.08 73.0168 24.4C72.8248 24.272 72.6008 24.144 72.3448 24.016C72.1528 23.888 71.8648 23.824 71.4808 23.824C70.0728 23.824 68.7928 24.464 67.6407 25.744C66.5528 26.96 65.6248 28.496 64.8568 30.352C64.0888 32.144 63.4808 34.032 63.0328 36.016C62.6488 38 62.4568 39.728 62.4568 41.2C62.4568 44.464 63.0008 46.96 64.0888 48.688C65.1768 50.352 66.3288 51.184 67.5448 51.184C68.1208 51.184 68.7288 50.768 69.3688 49.936C70.0728 49.04 70.7128 48.08 71.2888 47.056C71.9288 45.968 72.4728 44.944 72.9208 43.984C73.3688 43.024 73.6248 42.448 73.6888 42.256C73.8168 41.616 73.8808 40.88 73.8808 40.048C73.8808 39.344 73.8488 38.576 73.7848 37.744C73.7848 36.848 73.7848 35.952 73.7848 35.056C73.7848 33.392 73.9128 32.016 74.1688 30.928C74.4248 29.776 75.0648 29.2 76.0888 29.2C77.1128 29.2 77.8488 29.52 78.2968 30.16C78.7448 30.736 78.9688 31.44 78.9688 32.272C78.9688 32.848 78.9368 33.552 78.8728 34.384C78.8728 35.152 78.8728 35.92 78.8728 36.688C78.8728 37.392 78.8408 38.032 78.7768 38.608C78.7768 39.12 78.7768 39.44 78.7768 39.568C78.7768 39.952 78.8088 40.528 78.8728 41.296C79.0008 42 79.0968 42.736 79.1608 43.504C79.2888 44.208 79.3848 44.88 79.4488 45.52C79.5768 46.096 79.6728 46.48 79.7368 46.672C79.8008 46.864 79.8968 47.152 80.0248 47.536C80.1528 47.92 80.2808 48.208 80.4088 48.4C80.4728 48.272 80.6008 48.144 80.7928 48.016C80.9848 47.824 81.1448 47.664 81.2728 47.536C81.5928 47.728 81.8808 48.112 82.1368 48.688C82.4568 49.2 82.6168 49.488 82.6168 49.552ZM79.3528 61.744C79.0968 60.72 78.8088 59.696 78.4888 58.672C78.1688 57.648 77.8488 56.592 77.5288 55.504C76.4408 56.848 75.3848 58.128 74.3608 59.344C73.4008 60.624 72.5048 61.872 71.6728 63.088C70.9048 64.304 70.2648 65.552 69.7528 66.832C69.3048 68.176 69.0807 69.584 69.0807 71.056C69.0807 73.04 69.6248 74.672 70.7128 75.952C71.8648 77.232 73.1128 77.872 74.4568 77.872C75.9288 77.872 77.3048 77.328 78.5848 76.24C79.9288 75.152 80.6008 73.584 80.6008 71.536C80.6008 70.192 80.5688 69.072 80.5048 68.176C80.4408 67.28 80.3448 66.48 80.2168 65.776C80.1528 65.136 80.0248 64.496 79.8328 63.856C79.7048 63.28 79.5448 62.576 79.3528 61.744ZM136.19 38.032C136.19 39.184 135.646 40.624 134.558 42.352C133.534 44.016 132.126 45.648 130.334 47.248C128.542 48.848 126.462 50.224 124.094 51.376C121.726 52.464 119.262 53.008 116.702 53.008C115.55 53.008 114.334 52.816 113.054 52.432C111.774 52.048 110.526 51.504 109.31 50.8C108.094 50.032 107.006 49.136 106.046 48.112C105.086 47.024 104.382 45.808 103.934 44.464C103.55 44.848 103.07 45.488 102.494 46.384C101.982 47.28 101.406 48.208 100.766 49.168C100.126 50.064 99.422 50.864 98.654 51.568C97.886 52.208 97.086 52.528 96.254 52.528C95.422 52.528 94.718 52.112 94.142 51.28C93.63 50.384 93.214 49.424 92.894 48.4C92.574 47.312 92.35 46.288 92.222 45.328C92.094 44.368 92.03 43.824 92.03 43.696C92.03 42.928 92.254 41.488 92.702 39.376C93.15 37.2 93.822 34.96 94.718 32.656C95.614 30.352 96.734 28.304 98.078 26.512C99.486 24.72 101.118 23.824 102.974 23.824C103.678 23.824 104.126 24.144 104.318 24.784C104.574 25.36 104.702 25.936 104.702 26.512V29.392C105.022 29.648 105.342 29.84 105.662 29.968C106.046 30.032 106.366 30.16 106.622 30.352C106.942 30.48 107.166 30.704 107.294 31.024C107.486 31.344 107.582 31.856 107.582 32.56C107.582 33.008 107.55 33.424 107.486 33.808C107.422 34.128 107.39 34.448 107.39 34.768C107.39 36.432 107.518 38.064 107.774 39.664C108.03 41.264 108.542 42.704 109.31 43.984C110.078 45.2 111.134 46.224 112.478 47.056C113.822 47.824 115.614 48.208 117.854 48.208C120.67 48.208 123.038 47.632 124.958 46.48C126.942 45.264 128.574 43.952 129.854 42.544C131.198 41.072 132.254 39.76 133.022 38.608C133.79 37.392 134.43 36.784 134.942 36.784C135.774 36.784 136.19 37.2 136.19 38.032ZM102.494 33.808C102.494 33.552 102.43 33.328 102.302 33.136C102.174 32.88 102.11 32.656 102.11 32.464C102.11 32.208 102.174 31.984 102.302 31.792C102.43 31.6 102.494 31.344 102.494 31.024C102.494 30.832 102.43 30.704 102.302 30.64C102.174 30.512 102.11 30.384 102.11 30.256C101.534 30.384 100.926 30.928 100.286 31.888C99.71 32.848 99.134 33.968 98.558 35.248C98.046 36.528 97.63 37.84 97.31 39.184C96.99 40.464 96.83 41.52 96.83 42.352C96.83 42.8 96.958 43.536 97.214 44.56C97.47 45.584 97.758 46.256 98.078 46.576C99.166 44.336 100.158 42.16 101.054 40.048C102.014 37.936 102.494 35.856 102.494 33.808Z" fill="white"/>
</svg>
