<svg width="109" height="37" viewBox="0 0 109 37" fill="none" xmlns="http://www.w3.org/2000/svg">
<path d="M13.895 9.115C13.925 9.175 13.955 9.22 13.985 9.25C14.015 9.25 14.03 9.28 14.03 9.34C14.03 9.52 13.655 9.865 12.905 10.375C12.155 10.855 11.225 11.41 10.115 12.04C9.005 12.64 7.835 13.255 6.605 13.885C5.375 14.485 4.28 14.98 3.32 15.37C3.32 15.43 3.29 15.625 3.23 15.955C3.17 16.285 3.14 16.495 3.14 16.585V17.44C3.14 18.13 3.245 18.82 3.455 19.51C3.665 20.17 3.98 20.77 4.4 21.31C4.85 21.85 5.39 22.285 6.02 22.615C6.65 22.945 7.385 23.11 8.225 23.11C8.585 23.11 9.02 23.05 9.53 22.93C10.07 22.78 10.58 22.585 11.06 22.345C11.57 22.075 12.02 21.76 12.41 21.4C12.8 21.04 13.04 20.635 13.13 20.185C13.49 20.215 13.7 20.32 13.76 20.5C13.85 20.68 13.895 20.8 13.895 20.86C13.895 21.64 13.7 22.315 13.31 22.885C12.95 23.425 12.485 23.875 11.915 24.235C11.375 24.565 10.79 24.82 10.16 25C9.56 25.15 9.02 25.225 8.54 25.225C5.96 25.225 4.085 24.505 2.915 23.065C1.745 21.625 1.16 19.735 1.16 17.395C1.16 17.275 1.19 17.005 1.25 16.585C1.31 16.165 1.34 15.88 1.34 15.73C1.34 15.7 1.28 15.67 1.16 15.64C1.04 15.58 0.905 15.52 0.755 15.46C0.635 15.4 0.515 15.31 0.395 15.19C0.305 15.04 0.26 14.845 0.26 14.605C0.26 14.365 0.35 14.17 0.53 14.02C0.71 13.87 0.92 13.735 1.16 13.615L1.61 13.345C1.88 12.205 2.195 11.11 2.555 10.06C2.945 8.98 3.425 7.9 3.995 6.82C3.755 6.82 3.5 6.79 3.23 6.73C2.96 6.67 2.825 6.46 2.825 6.1C2.825 5.68 3.065 5.215 3.545 4.705C4.055 4.195 4.625 3.715 5.255 3.265C5.915 2.815 6.56 2.44 7.19 2.14C7.82 1.81 8.27 1.645 8.54 1.645C8.66 1.645 8.735 1.675 8.765 1.735C8.825 1.765 8.915 1.78 9.035 1.78C9.275 1.78 9.575 1.735 9.935 1.645C10.325 1.555 10.73 1.45 11.15 1.33C11.57 1.21 11.96 1.105 12.32 1.015C12.71 0.924999 13.025 0.879999 13.265 0.879999C13.535 0.879999 13.73 0.969999 13.85 1.15C14 1.33 14.075 1.525 14.075 1.735C14.075 1.975 13.925 2.155 13.625 2.275C13.325 2.365 13.055 2.44 12.815 2.5C11.975 2.65 11.09 2.92 10.16 3.31C9.26 3.67 8.42 4.075 7.64 4.525C7.34 4.855 6.98 5.335 6.56 5.965C6.14 6.565 5.735 7.255 5.345 8.035C4.955 8.815 4.595 9.625 4.265 10.465C3.965 11.305 3.77 12.1 3.68 12.85L4.445 12.49C6.755 11.38 8.63 10.51 10.07 9.88C11.54 9.25 12.68 8.935 13.49 8.935C13.64 8.935 13.775 8.995 13.895 9.115ZM32.2163 17.53C32.2163 17.8 32.0363 18.085 31.6763 18.385C31.3163 18.685 30.8963 18.97 30.4163 19.24C29.9363 19.48 29.4413 19.69 28.9313 19.87C28.4513 20.05 28.0913 20.14 27.8513 20.14C27.5813 20.14 27.2813 20.065 26.9513 19.915C26.6513 19.765 26.3513 19.585 26.0513 19.375C25.7813 19.165 25.5413 18.97 25.3313 18.79C25.1213 18.61 24.9863 18.49 24.9263 18.43C24.8363 18.52 24.7013 18.7 24.5213 18.97C24.3413 19.24 24.1163 19.54 23.8463 19.87C23.6063 20.17 23.3363 20.44 23.0363 20.68C22.7663 20.92 22.4813 21.04 22.1813 21.04C21.4013 21.04 20.7263 20.62 20.1563 19.78C19.5863 18.94 19.1063 17.98 18.7163 16.9C18.3563 15.82 18.0713 14.785 17.8613 13.795C17.6813 12.775 17.5913 12.085 17.5913 11.725C17.5913 11.515 17.6963 11.35 17.9063 11.23C18.1463 11.08 18.3263 11.005 18.4463 11.005C18.8663 11.005 19.1513 11.155 19.3013 11.455C19.4513 11.725 19.5263 12.025 19.5263 12.355C19.5263 12.625 19.6013 13.105 19.7513 13.795C19.9313 14.485 20.1413 15.19 20.3813 15.91C20.6213 16.63 20.8763 17.275 21.1463 17.845C21.4163 18.385 21.6563 18.655 21.8663 18.655C22.2563 18.655 22.5863 18.415 22.8563 17.935C23.1563 17.425 23.3963 16.855 23.5763 16.225C23.7563 15.565 23.8913 14.95 23.9813 14.38C24.0713 13.78 24.1163 13.39 24.1163 13.21C24.1163 13.18 24.1163 13.09 24.1163 12.94C24.1463 12.76 24.1763 12.58 24.2063 12.4C24.2363 12.22 24.2513 12.055 24.2513 11.905C24.2813 11.755 24.2963 11.65 24.2963 11.59C24.2963 11.38 24.2513 11.245 24.1613 11.185C24.0713 11.095 24.0263 10.93 24.0263 10.69C24.0263 10.51 24.1163 10.345 24.2963 10.195C24.4763 10.015 24.8663 9.925 25.4663 9.925C25.7063 9.925 25.8863 10 26.0063 10.15C26.1563 10.27 26.2613 10.42 26.3213 10.6C26.3813 10.78 26.4113 10.96 26.4113 11.14C26.4413 11.29 26.4563 11.395 26.4563 11.455C26.4563 11.485 26.4413 11.695 26.4113 12.085C26.3813 12.475 26.3513 12.91 26.3213 13.39C26.3213 13.84 26.3063 14.275 26.2763 14.695C26.2463 15.115 26.2313 15.37 26.2313 15.46C26.2313 15.55 26.2763 15.73 26.3663 16C26.4563 16.27 26.5613 16.555 26.6813 16.855C26.8313 17.125 26.9963 17.38 27.1763 17.62C27.3563 17.83 27.5513 17.935 27.7613 17.935C28.1213 17.935 28.4513 17.89 28.7513 17.8C29.0813 17.68 29.3813 17.56 29.6513 17.44C29.9513 17.29 30.2213 17.17 30.4613 17.08C30.7013 16.96 30.9263 16.9 31.1363 16.9C31.4063 16.9 31.6463 16.96 31.8563 17.08C32.0963 17.2 32.2163 17.35 32.2163 17.53ZM45.1827 21.04C45.1827 21.37 45.0627 21.595 44.8227 21.715C44.5827 21.835 44.4627 22 44.4627 22.21C44.4327 22.18 44.4927 22.345 44.6427 22.705C44.7927 23.065 44.9277 23.44 45.0477 23.83C45.2577 24.64 45.4377 25.345 45.5877 25.945C45.7677 26.545 45.9027 27.1 45.9927 27.61C46.1127 28.12 46.2027 28.63 46.2627 29.14C46.3227 29.65 46.3527 30.22 46.3527 30.85C46.3527 31.48 46.2477 32.125 46.0377 32.785C45.8277 33.445 45.5277 34.03 45.1377 34.54C44.7477 35.05 44.2677 35.47 43.6977 35.8C43.1277 36.13 42.4827 36.295 41.7627 36.295C40.6527 36.295 39.7677 36.07 39.1077 35.62C38.4777 35.17 37.9977 34.66 37.6677 34.09C37.3377 33.52 37.1277 32.95 37.0377 32.38C36.9477 31.84 36.9027 31.48 36.9027 31.3C36.9027 30.19 37.1877 29.08 37.7577 27.97C38.3277 26.86 38.9577 25.855 39.6477 24.955C40.3377 24.055 40.9677 23.305 41.5377 22.705C42.1077 22.105 42.3927 21.76 42.3927 21.67L41.8977 20.185C41.5977 20.545 41.3277 20.95 41.0877 21.4C40.8777 21.82 40.6377 22.225 40.3677 22.615C40.1277 22.975 39.8277 23.29 39.4677 23.56C39.1377 23.8 38.7177 23.92 38.2077 23.92C37.6677 23.92 37.1277 23.755 36.5877 23.425C36.0477 23.095 35.5677 22.6 35.1477 21.94C34.7277 21.28 34.3827 20.485 34.1127 19.555C33.8727 18.625 33.7527 17.545 33.7527 16.315C33.7527 15.625 33.8577 14.77 34.0677 13.75C34.2777 12.7 34.6077 11.695 35.0577 10.735C35.5077 9.775 36.0627 8.965 36.7227 8.305C37.4127 7.615 38.2077 7.27 39.1077 7.27C39.6177 7.27 40.0827 7.36 40.5027 7.54C40.9527 7.72 41.1777 7.945 41.1777 8.215C41.1777 8.455 41.1327 8.65 41.0427 8.8C40.9527 8.95 40.8327 9.1 40.6827 9.25C40.5927 9.19 40.4877 9.13 40.3677 9.07C40.2777 9.01 40.1427 8.98 39.9627 8.98C39.3027 8.98 38.7027 9.28 38.1627 9.88C37.6527 10.45 37.2177 11.17 36.8577 12.04C36.4977 12.88 36.2127 13.765 36.0027 14.695C35.8227 15.625 35.7327 16.435 35.7327 17.125C35.7327 18.655 35.9877 19.825 36.4977 20.635C37.0077 21.415 37.5477 21.805 38.1177 21.805C38.3877 21.805 38.6727 21.61 38.9727 21.22C39.3027 20.8 39.6027 20.35 39.8727 19.87C40.1727 19.36 40.4277 18.88 40.6377 18.43C40.8477 17.98 40.9677 17.71 40.9977 17.62C41.0577 17.32 41.0877 16.975 41.0877 16.585C41.0877 16.255 41.0727 15.895 41.0427 15.505C41.0427 15.085 41.0427 14.665 41.0427 14.245C41.0427 13.465 41.1027 12.82 41.2227 12.31C41.3427 11.77 41.6427 11.5 42.1227 11.5C42.6027 11.5 42.9477 11.65 43.1577 11.95C43.3677 12.22 43.4727 12.55 43.4727 12.94C43.4727 13.21 43.4577 13.54 43.4277 13.93C43.4277 14.29 43.4277 14.65 43.4277 15.01C43.4277 15.34 43.4127 15.64 43.3827 15.91C43.3827 16.15 43.3827 16.3 43.3827 16.36C43.3827 16.54 43.3977 16.81 43.4277 17.17C43.4877 17.5 43.5327 17.845 43.5627 18.205C43.6227 18.535 43.6677 18.85 43.6977 19.15C43.7577 19.42 43.8027 19.6 43.8327 19.69C43.8627 19.78 43.9077 19.915 43.9677 20.095C44.0277 20.275 44.0877 20.41 44.1477 20.5C44.1777 20.44 44.2377 20.38 44.3277 20.32C44.4177 20.23 44.4927 20.155 44.5527 20.095C44.7027 20.185 44.8377 20.365 44.9577 20.635C45.1077 20.875 45.1827 21.01 45.1827 21.04ZM43.6527 26.755C43.5327 26.275 43.3977 25.795 43.2477 25.315C43.0977 24.835 42.9477 24.34 42.7977 23.83C42.2877 24.46 41.7927 25.06 41.3127 25.63C40.8627 26.23 40.4427 26.815 40.0527 27.385C39.6927 27.955 39.3927 28.54 39.1527 29.14C38.9427 29.77 38.8377 30.43 38.8377 31.12C38.8377 32.05 39.0927 32.815 39.6027 33.415C40.1427 34.015 40.7277 34.315 41.3577 34.315C42.0477 34.315 42.6927 34.06 43.2927 33.55C43.9227 33.04 44.2377 32.305 44.2377 31.345C44.2377 30.715 44.2227 30.19 44.1927 29.77C44.1627 29.35 44.1177 28.975 44.0577 28.645C44.0277 28.345 43.9677 28.045 43.8777 27.745C43.8177 27.475 43.7427 27.145 43.6527 26.755ZM61.4301 20.275C61.4601 20.335 61.4751 20.425 61.4751 20.545C61.4751 20.725 61.3401 20.995 61.0701 21.355C60.9801 21.475 60.7851 21.67 60.4851 21.94C60.1851 22.21 59.7801 22.48 59.2701 22.75C58.7601 23.02 58.1301 23.26 57.3801 23.47C56.6601 23.68 55.8051 23.785 54.8151 23.785C54.1251 23.785 53.4501 23.635 52.7901 23.335C52.1301 23.005 51.5451 22.54 51.0351 21.94C50.5251 21.31 50.1051 20.545 49.7751 19.645C49.4451 18.715 49.2801 17.635 49.2801 16.405C49.2801 15.235 49.4301 14.14 49.7301 13.12C50.0301 12.1 50.4051 11.2 50.8551 10.42C51.3351 9.64 51.8601 9.025 52.4301 8.575C53.0001 8.125 53.5551 7.9 54.0951 7.9C54.5751 7.9 55.0551 8.005 55.5351 8.215C56.0451 8.395 56.4951 8.635 56.8851 8.935C57.3051 9.235 57.6351 9.58 57.8751 9.97C58.1151 10.33 58.2351 10.705 58.2351 11.095C58.2351 11.545 58.0251 12.01 57.6051 12.49C57.2151 12.97 56.7351 13.42 56.1651 13.84C55.5951 14.23 55.0251 14.56 54.4551 14.83C53.8851 15.07 53.4351 15.19 53.1051 15.19C52.9251 15.19 52.7601 15.115 52.6101 14.965C52.4901 14.785 52.4301 14.575 52.4301 14.335C52.4301 13.915 52.6101 13.585 52.9701 13.345C53.3601 13.105 53.7801 12.895 54.2301 12.715C54.6801 12.505 55.0851 12.265 55.4451 11.995C55.8351 11.725 56.0301 11.35 56.0301 10.87C56.0301 10.81 55.9551 10.66 55.8051 10.42C55.6551 10.18 55.2501 10.06 54.5901 10.06C54.2901 10.06 53.9451 10.24 53.5551 10.6C53.1651 10.93 52.7901 11.395 52.4301 11.995C52.0701 12.565 51.7701 13.255 51.5301 14.065C51.2901 14.845 51.1701 15.7 51.1701 16.63C51.1701 17.41 51.3051 18.115 51.5751 18.745C51.8751 19.375 52.2501 19.915 52.7001 20.365C53.1501 20.785 53.6751 21.115 54.2751 21.355C54.8751 21.595 55.4901 21.715 56.1201 21.715C56.5701 21.715 57.0501 21.625 57.5601 21.445C58.1001 21.235 58.5951 21.025 59.0451 20.815C59.5251 20.575 59.9301 20.365 60.2601 20.185C60.6201 19.975 60.8451 19.87 60.9351 19.87C61.0251 19.87 61.1151 19.915 61.2051 20.005C61.3251 20.095 61.4001 20.185 61.4301 20.275ZM78.1086 19.465C78.1086 19.645 78.0486 19.825 77.9286 20.005C77.8086 20.185 77.6586 20.35 77.4786 20.5C77.3286 20.65 77.1486 20.785 76.9386 20.905C76.7586 20.995 76.5936 21.04 76.4436 21.04C75.9336 21.04 75.2736 20.935 74.4636 20.725C73.6836 20.485 73.0536 20.125 72.5736 19.645C72.0636 19.135 71.6136 18.535 71.2236 17.845C70.8336 17.125 70.3986 16.075 69.9186 14.695C69.5886 16.015 69.1986 17.32 68.7486 18.61C68.3286 19.9 67.6386 21.085 66.6786 22.165C66.6186 22.225 66.5286 22.255 66.4086 22.255C66.1986 22.255 65.9736 22.15 65.7336 21.94C65.4936 21.73 65.3736 21.52 65.3736 21.31C65.3736 21.1 65.3436 20.62 65.2836 19.87C65.2536 19.09 65.2086 18.235 65.1486 17.305C65.0886 16.345 65.0286 15.385 64.9686 14.425C64.9386 13.435 64.9236 12.625 64.9236 11.995C64.9236 11.695 64.9386 11.305 64.9686 10.825C64.9986 10.315 65.0886 9.88 65.2386 9.52C65.2686 9.46 65.3736 9.34 65.5536 9.16C65.7636 8.98 65.9886 8.89 66.2286 8.89C66.4386 8.89 66.5586 9.025 66.5886 9.295C66.6186 9.565 66.6336 9.865 66.6336 10.195V17.305C66.6336 17.455 66.6486 17.665 66.6786 17.935C66.7386 18.205 66.8136 18.4 66.9036 18.52C67.2336 17.8 67.5336 16.96 67.8036 16C68.1036 15.01 68.3886 14.08 68.6586 13.21C68.9286 12.31 69.1986 11.56 69.4686 10.96C69.7386 10.33 70.0086 10.015 70.2786 10.015C70.5786 10.015 70.8186 10.075 70.9986 10.195C71.1786 10.315 71.3286 10.555 71.4486 10.915C71.5986 11.785 71.7186 12.565 71.8086 13.255C71.8986 13.915 72.0036 14.515 72.1236 15.055C72.2736 15.595 72.4686 16.105 72.7086 16.585C72.9786 17.035 73.3386 17.455 73.7886 17.845C74.2086 18.235 74.6736 18.52 75.1836 18.7C75.7236 18.88 76.1886 18.97 76.5786 18.97C76.7586 18.97 76.9536 18.94 77.1636 18.88C77.3736 18.79 77.5236 18.745 77.6136 18.745C77.7336 18.745 77.8386 18.85 77.9286 19.06C78.0486 19.27 78.1086 19.405 78.1086 19.465ZM83.0839 4.3C83.0839 4.36 82.9789 4.48 82.7689 4.66C82.5589 4.84 82.3039 5.035 82.0039 5.245C81.7339 5.425 81.4489 5.59 81.1489 5.74C80.8489 5.89 80.6089 5.965 80.4289 5.965C80.3089 5.965 80.1439 5.965 79.9339 5.965C79.7539 5.935 79.5589 5.875 79.3489 5.785C79.1689 5.695 79.0039 5.575 78.8539 5.425C78.7039 5.245 78.6289 5.02 78.6289 4.75C78.6289 4.33 78.7789 3.94 79.0789 3.58C79.3789 3.19 79.7689 2.995 80.2489 2.995C80.3389 2.995 80.5339 3.04 80.8339 3.13C81.1639 3.19 81.4939 3.28 81.8239 3.4C82.1539 3.52 82.4389 3.655 82.6789 3.805C82.9489 3.955 83.0839 4.12 83.0839 4.3ZM84.5689 21.13C84.5689 21.34 84.4039 21.52 84.0739 21.67C83.7739 21.82 83.5489 21.895 83.3989 21.895C83.0989 21.895 82.8289 21.7 82.5889 21.31C82.3489 20.92 82.1389 20.47 81.9589 19.96C81.7789 19.45 81.6289 18.97 81.5089 18.52C81.3889 18.04 81.2989 17.71 81.2389 17.53C81.1489 17.23 81.0289 16.87 80.8789 16.45C80.7289 16.03 80.5789 15.625 80.4289 15.235C80.3089 14.845 80.2039 14.5 80.1139 14.2C80.0239 13.9 79.9789 13.735 79.9789 13.705C79.9789 13.285 80.0539 12.895 80.2039 12.535C80.3839 12.175 80.5939 11.995 80.8339 11.995C81.1039 11.995 81.3889 12.205 81.6889 12.625C81.9889 13.045 82.2739 13.585 82.5439 14.245C82.8439 14.875 83.1139 15.58 83.3539 16.36C83.5939 17.11 83.8039 17.83 83.9839 18.52C84.1639 19.18 84.2989 19.765 84.3889 20.275C84.5089 20.755 84.5689 21.04 84.5689 21.13ZM108.791 15.64C108.791 16.18 108.536 16.855 108.026 17.665C107.546 18.445 106.886 19.21 106.046 19.96C105.206 20.71 104.231 21.355 103.121 21.895C102.011 22.405 100.856 22.66 99.6562 22.66C99.1162 22.66 98.5462 22.57 97.9462 22.39C97.3462 22.21 96.7612 21.955 96.1912 21.625C95.6212 21.265 95.1112 20.845 94.6612 20.365C94.2112 19.855 93.8812 19.285 93.6712 18.655C93.4912 18.835 93.2662 19.135 92.9962 19.555C92.7562 19.975 92.4862 20.41 92.1862 20.86C91.8862 21.28 91.5562 21.655 91.1962 21.985C90.8362 22.285 90.4612 22.435 90.0712 22.435C89.6812 22.435 89.3512 22.24 89.0812 21.85C88.8412 21.43 88.6462 20.98 88.4962 20.5C88.3462 19.99 88.2412 19.51 88.1812 19.06C88.1212 18.61 88.0912 18.355 88.0912 18.295C88.0912 17.935 88.1962 17.26 88.4062 16.27C88.6162 15.25 88.9312 14.2 89.3512 13.12C89.7712 12.04 90.2962 11.08 90.9262 10.24C91.5862 9.4 92.3512 8.98 93.2212 8.98C93.5512 8.98 93.7612 9.13 93.8512 9.43C93.9712 9.7 94.0312 9.97 94.0312 10.24V11.59C94.1812 11.71 94.3312 11.8 94.4812 11.86C94.6612 11.89 94.8112 11.95 94.9312 12.04C95.0812 12.1 95.1862 12.205 95.2462 12.355C95.3362 12.505 95.3812 12.745 95.3812 13.075C95.3812 13.285 95.3662 13.48 95.3362 13.66C95.3062 13.81 95.2912 13.96 95.2912 14.11C95.2912 14.89 95.3512 15.655 95.4712 16.405C95.5912 17.155 95.8312 17.83 96.1912 18.43C96.5512 19 97.0462 19.48 97.6762 19.87C98.3062 20.23 99.1462 20.41 100.196 20.41C101.516 20.41 102.626 20.14 103.526 19.6C104.456 19.03 105.221 18.415 105.821 17.755C106.451 17.065 106.946 16.45 107.306 15.91C107.666 15.34 107.966 15.055 108.206 15.055C108.596 15.055 108.791 15.25 108.791 15.64ZM92.9962 13.66C92.9962 13.54 92.9662 13.435 92.9062 13.345C92.8462 13.225 92.8162 13.12 92.8162 13.03C92.8162 12.91 92.8462 12.805 92.9062 12.715C92.9662 12.625 92.9962 12.505 92.9962 12.355C92.9962 12.265 92.9662 12.205 92.9062 12.175C92.8462 12.115 92.8162 12.055 92.8162 11.995C92.5462 12.055 92.2612 12.31 91.9612 12.76C91.6912 13.21 91.4212 13.735 91.1512 14.335C90.9112 14.935 90.7162 15.55 90.5662 16.18C90.4162 16.78 90.3412 17.275 90.3412 17.665C90.3412 17.875 90.4012 18.22 90.5212 18.7C90.6412 19.18 90.7762 19.495 90.9262 19.645C91.4362 18.595 91.9012 17.575 92.3212 16.585C92.7712 15.595 92.9962 14.62 92.9962 13.66Z" fill="white"/>
</svg>
