<svg width="18" height="18" viewBox="0 0 18 18" fill="none" xmlns="http://www.w3.org/2000/svg">
<path fill-rule="evenodd" clip-rule="evenodd" d="M16.7605 0.21253C16.9021 0.0709305 17.0885 -1.90735e-06 17.2738 -1.90735e-06C17.4594 -1.90735e-06 17.6458 0.0709305 17.7874 0.21253C18.0709 0.495729 18.0709 0.956261 17.7874 1.23946L10.0269 8.99997L17.7874 16.7605C18.0709 17.0437 18.0709 17.5042 17.7874 17.7874C17.5042 18.0709 17.0437 18.0709 16.7605 17.7874L9 10.0269L1.23952 17.7874C0.956326 18.0709 0.495796 18.0709 0.212598 17.7874C-0.0708662 17.5042 -0.0708662 17.0437 0.212598 16.7605L7.97307 8.99997L0.212598 1.23946C-0.0708662 0.956261 -0.0708662 0.495729 0.212598 0.21253C0.354197 0.0709305 0.540596 -1.90735e-06 0.726195 -1.90735e-06C0.912593 -1.90735e-06 1.09793 0.0709305 1.23952 0.21253L9 7.97303L16.7605 0.21253Z" fill="currentColor"/>
</svg>
