<svg width="2328" height="208" viewBox="0 0 2328 208" fill="none" xmlns="http://www.w3.org/2000/svg">
<path d="M8.616 205C6.504 205 4.68 204.232 3.144 202.696C1.608 201.16 0.840001 199.336 0.840001 197.224V11.176C0.840001 9.06399 1.608 7.23999 3.144 5.70399C4.68 4.16799 6.504 3.39999 8.616 3.39999H157.8C159.912 3.39999 161.736 4.16799 163.272 5.70399C164.808 7.23999 165.576 9.06399 165.576 11.176V54.664C165.576 56.776 164.808 58.6 163.272 60.136C161.736 61.672 159.912 62.44 157.8 62.44H72.84V76.264H98.76C124.104 76.264 144.168 81.928 158.952 93.256C173.736 104.392 181.128 119.944 181.128 139.912C181.128 160.264 173.832 176.2 159.24 187.72C144.84 199.24 124.68 205 98.76 205H8.616ZM93 155.464C97.224 155.464 100.488 153.928 102.792 150.856C105.096 147.784 106.248 144.136 106.248 139.912C106.248 135.88 105 132.328 102.504 129.256C100.008 125.992 96.84 124.36 93 124.36H72.84V155.464H93ZM202.116 205C200.004 205 198.18 204.232 196.644 202.696C195.108 201.16 194.34 199.336 194.34 197.224V11.176C194.34 9.06399 195.108 7.23999 196.644 5.70399C198.18 4.16799 200.004 3.39999 202.116 3.39999H349.86C351.972 3.39999 353.796 4.16799 355.332 5.70399C356.868 7.23999 357.636 9.06399 357.636 11.176V51.784C357.636 53.896 356.868 55.72 355.332 57.256C353.796 58.792 351.972 59.56 349.86 59.56H263.46V77.704H343.524C345.636 77.704 347.46 78.472 348.996 80.008C350.532 81.544 351.3 83.368 351.3 85.48V122.92C351.3 125.032 350.532 126.856 348.996 128.392C347.46 129.928 345.636 130.696 343.524 130.696H263.46V148.84H352.164C354.276 148.84 356.1 149.608 357.636 151.144C359.172 152.68 359.94 154.504 359.94 156.616V197.224C359.94 199.336 359.172 201.16 357.636 202.696C356.1 204.232 354.276 205 352.164 205H202.116ZM476.324 207.88C447.332 207.88 424.292 201.544 407.203 188.872C390.116 176.008 380.996 156.328 379.844 129.832C379.652 124.648 379.556 116.2 379.556 104.488C379.556 92.584 379.652 83.944 379.844 78.568C380.996 52.84 390.308 33.448 407.78 20.392C425.252 7.14399 448.1 0.519989 476.324 0.519989C493.604 0.519989 509.444 3.11199 523.844 8.29599C538.436 13.48 550.244 21.64 559.268 32.776C568.484 43.72 573.188 57.544 573.38 74.248C573.38 75.976 572.708 77.512 571.364 78.856C570.212 80.008 568.772 80.584 567.044 80.584H508.292C505.22 80.584 502.916 80.008 501.38 78.856C500.036 77.704 498.788 75.496 497.636 72.232C495.524 66.472 492.74 62.44 489.284 60.136C485.828 57.832 481.412 56.68 476.036 56.68C469.316 56.68 464.132 58.504 460.484 62.152C456.836 65.608 454.916 71.56 454.724 80.008C454.532 85.192 454.436 93.16 454.436 103.912C454.436 114.664 454.532 122.824 454.724 128.392C454.916 136.84 456.836 142.888 460.484 146.536C464.132 149.992 469.316 151.72 476.036 151.72C486.98 151.72 494.18 146.536 497.636 136.168C498.596 132.904 499.748 130.696 501.092 129.544C502.628 128.392 505.028 127.816 508.292 127.816H567.044C568.772 127.816 570.212 128.488 571.364 129.832C572.708 130.984 573.38 132.424 573.38 134.152C573.188 150.856 568.484 164.776 559.268 175.912C550.244 186.856 538.436 194.92 523.844 200.104C509.444 205.288 493.604 207.88 476.324 207.88ZM648.662 205C646.55 205 644.726 204.232 643.19 202.696C641.654 201.16 640.886 199.336 640.886 197.224V65.32H593.078C590.966 65.32 589.142 64.552 587.606 63.016C586.07 61.48 585.302 59.656 585.302 57.544V11.176C585.302 9.06399 586.07 7.23999 587.606 5.70399C589.142 4.16799 590.966 3.39999 593.078 3.39999H761.846C763.958 3.39999 765.782 4.16799 767.318 5.70399C768.854 7.23999 769.622 9.06399 769.622 11.176V57.544C769.622 59.656 768.854 61.48 767.318 63.016C765.782 64.552 763.958 65.32 761.846 65.32H714.038V197.224C714.038 199.336 713.27 201.16 711.734 202.696C710.198 204.232 708.374 205 706.262 205H648.662ZM881.605 207.88C852.613 207.88 829.573 201.544 812.485 188.872C795.397 176.008 786.277 156.328 785.125 129.832C784.933 124.648 784.837 116.2 784.837 104.488C784.837 92.584 784.933 83.944 785.125 78.568C786.277 52.84 795.589 33.448 813.061 20.392C830.533 7.14399 853.381 0.519989 881.605 0.519989C898.885 0.519989 914.725 3.11199 929.125 8.29599C943.717 13.48 955.525 21.64 964.549 32.776C973.765 43.72 978.469 57.544 978.661 74.248C978.661 75.976 977.989 77.512 976.645 78.856C975.493 80.008 974.053 80.584 972.325 80.584H913.573C910.501 80.584 908.197 80.008 906.661 78.856C905.317 77.704 904.069 75.496 902.917 72.232C900.805 66.472 898.021 62.44 894.565 60.136C891.109 57.832 886.693 56.68 881.317 56.68C874.597 56.68 869.413 58.504 865.765 62.152C862.117 65.608 860.197 71.56 860.005 80.008C859.813 85.192 859.717 93.16 859.717 103.912C859.717 114.664 859.813 122.824 860.005 128.392C860.197 136.84 862.117 142.888 865.765 146.536C869.413 149.992 874.597 151.72 881.317 151.72C892.261 151.72 899.461 146.536 902.917 136.168C903.877 132.904 905.029 130.696 906.373 129.544C907.909 128.392 910.309 127.816 913.573 127.816H972.325C974.053 127.816 975.493 128.488 976.645 129.832C977.989 130.984 978.661 132.424 978.661 134.152C978.469 150.856 973.765 164.776 964.549 175.912C955.525 186.856 943.717 194.92 929.125 200.104C914.725 205.288 898.885 207.88 881.605 207.88ZM1009.3 205C1007.19 205 1005.37 204.232 1003.83 202.696C1002.3 201.16 1001.53 199.336 1001.53 197.224V11.176C1001.53 9.06399 1002.3 7.23999 1003.83 5.70399C1005.37 4.16799 1007.19 3.39999 1009.3 3.39999H1157.05C1159.16 3.39999 1160.98 4.16799 1162.52 5.70399C1164.06 7.23999 1164.82 9.06399 1164.82 11.176V51.784C1164.82 53.896 1164.06 55.72 1162.52 57.256C1160.98 58.792 1159.16 59.56 1157.05 59.56H1070.65V77.704H1150.71C1152.82 77.704 1154.65 78.472 1156.18 80.008C1157.72 81.544 1158.49 83.368 1158.49 85.48V122.92C1158.49 125.032 1157.72 126.856 1156.18 128.392C1154.65 129.928 1152.82 130.696 1150.71 130.696H1070.65V148.84H1159.35C1161.46 148.84 1163.29 149.608 1164.82 151.144C1166.36 152.68 1167.13 154.504 1167.13 156.616V197.224C1167.13 199.336 1166.36 201.16 1164.82 202.696C1163.29 204.232 1161.46 205 1159.35 205H1009.3ZM1195.93 205C1193.81 205 1191.89 204.232 1190.17 202.696C1188.63 201.16 1187.86 199.336 1187.86 197.224V151.72C1187.86 147.496 1190.45 144.904 1195.64 143.944C1204.47 142.216 1210.23 134.536 1212.92 120.904C1215.61 107.272 1216.95 89.128 1216.95 66.472V11.176C1216.95 9.06399 1217.72 7.23999 1219.25 5.70399C1220.79 4.16799 1222.61 3.39999 1224.73 3.39999H1388.31C1390.42 3.39999 1392.25 4.16799 1393.78 5.70399C1395.32 7.23999 1396.09 9.06399 1396.09 11.176V197.224C1396.09 199.336 1395.32 201.16 1393.78 202.696C1392.25 204.232 1390.42 205 1388.31 205H1331.86C1329.75 205 1327.93 204.232 1326.39 202.696C1324.85 201.16 1324.09 199.336 1324.09 197.224V66.76H1286.07V75.688C1286.07 109.48 1283.96 135.304 1279.73 153.16C1275.7 170.824 1267.25 183.88 1254.39 192.328C1241.72 200.776 1222.23 205 1195.93 205ZM1430.21 205C1428.09 205 1426.17 204.232 1424.45 202.696C1422.91 201.16 1422.14 199.336 1422.14 197.224V151.72C1422.14 147.496 1424.73 144.904 1429.92 143.944C1438.75 142.216 1444.51 134.536 1447.2 120.904C1449.89 107.272 1451.23 89.128 1451.23 66.472V11.176C1451.23 9.06399 1452 7.23999 1453.53 5.70399C1455.07 4.16799 1456.89 3.39999 1459.01 3.39999H1622.59C1624.7 3.39999 1626.53 4.16799 1628.06 5.70399C1629.6 7.23999 1630.37 9.06399 1630.37 11.176V197.224C1630.37 199.336 1629.6 201.16 1628.06 202.696C1626.53 204.232 1624.7 205 1622.59 205H1566.14C1564.03 205 1562.21 204.232 1560.67 202.696C1559.13 201.16 1558.37 199.336 1558.37 197.224V66.76H1520.35V75.688C1520.35 109.48 1518.24 135.304 1514.01 153.16C1509.98 170.824 1501.53 183.88 1488.67 192.328C1476 200.776 1456.51 205 1430.21 205ZM1669.96 205C1667.85 205 1666.02 204.232 1664.49 202.696C1662.95 201.16 1662.18 199.336 1662.18 197.224V11.176C1662.18 9.06399 1662.95 7.23999 1664.49 5.70399C1666.02 4.16799 1667.85 3.39999 1669.96 3.39999H1817.7C1819.82 3.39999 1821.64 4.16799 1823.18 5.70399C1824.71 7.23999 1825.48 9.06399 1825.48 11.176V51.784C1825.48 53.896 1824.71 55.72 1823.18 57.256C1821.64 58.792 1819.82 59.56 1817.7 59.56H1731.3V77.704H1811.37C1813.48 77.704 1815.3 78.472 1816.84 80.008C1818.38 81.544 1819.14 83.368 1819.14 85.48V122.92C1819.14 125.032 1818.38 126.856 1816.84 128.392C1815.3 129.928 1813.48 130.696 1811.37 130.696H1731.3V148.84H1820.01C1822.12 148.84 1823.94 149.608 1825.48 151.144C1827.02 152.68 1827.78 154.504 1827.78 156.616V197.224C1827.78 199.336 1827.02 201.16 1825.48 202.696C1823.94 204.232 1822.12 205 1820.01 205H1669.96ZM1862.05 205C1859.94 205 1858.12 204.232 1856.58 202.696C1855.05 201.16 1854.28 199.336 1854.28 197.224V11.176C1854.28 9.06399 1855.05 7.23999 1856.58 5.70399C1858.12 4.16799 1859.94 3.39999 1862.05 3.39999H1949.32C1976.2 3.39999 1997.32 9.35199 2012.68 21.256C2028.23 33.16 2036.01 50.728 2036.01 73.96C2036.01 97 2028.33 114.184 2012.97 125.512C1997.61 136.648 1976.39 142.216 1949.32 142.216H1929.16V197.224C1929.16 199.336 1928.39 201.16 1926.85 202.696C1925.32 204.232 1923.49 205 1921.38 205H1862.05ZM1947.88 88.936C1951.33 88.936 1954.41 87.688 1957.09 85.192C1959.78 82.504 1961.13 78.568 1961.13 73.384C1961.13 68.968 1960.07 65.128 1957.96 61.864C1955.85 58.6 1952.49 56.968 1947.88 56.968H1927.72V88.936H1947.88ZM2065.12 205C2063 205 2061.18 204.232 2059.64 202.696C2058.11 201.16 2057.34 199.336 2057.34 197.224V11.176C2057.34 9.06399 2058.11 7.23999 2059.64 5.70399C2061.18 4.16799 2063 3.39999 2065.12 3.39999H2121.56C2123.68 3.39999 2125.5 4.16799 2127.04 5.70399C2128.57 7.23999 2129.34 9.06399 2129.34 11.176V66.184H2148.06C2176.48 66.184 2198.27 71.848 2213.44 83.176C2228.6 94.504 2236.19 111.592 2236.19 134.44C2236.19 157.288 2228.51 174.76 2213.15 186.856C2197.79 198.952 2176.09 205 2148.06 205H2065.12ZM2260.96 205C2258.84 205 2257.02 204.232 2255.48 202.696C2253.95 201.16 2253.18 199.336 2253.18 197.224V11.176C2253.18 9.06399 2253.95 7.23999 2255.48 5.70399C2257.02 4.16799 2258.84 3.39999 2260.96 3.39999H2319.71C2321.82 3.39999 2323.64 4.16799 2325.18 5.70399C2326.72 7.23999 2327.48 9.06399 2327.48 11.176V197.224C2327.48 199.336 2326.72 201.16 2325.18 202.696C2323.64 204.232 2321.82 205 2319.71 205H2260.96ZM2148.06 151.432C2152.48 151.432 2155.74 149.896 2157.85 146.824C2160.16 143.752 2161.31 139.816 2161.31 135.016C2161.31 130.024 2159.96 126.184 2157.28 123.496C2154.78 120.808 2151.71 119.464 2148.06 119.464H2129.34V151.432H2148.06Z" fill="#677E72" fill-opacity="0.04"/>
</svg>
