<svg width="220" height="50" viewBox="0 0 220 50" fill="none" xmlns="http://www.w3.org/2000/svg">
<rect width="220" height="50" fill="#78003E"/>
<path d="M189.855 34.8022V19.0769H195V15.2198H177.945V19.0769H183.079V34.8022H189.855ZM139.853 15.2198V34.8022H143.945V22.0769H144.055L149.112 34.8022H157.385V15.2198H153.293V27.956H153.171L148.147 15.2198H139.853ZM111.098 28.989C111.163 29.6334 111.015 30.2813 110.676 30.8352C110.149 31.2335 109.504 31.4493 108.841 31.4493C108.178 31.4493 107.533 31.2335 107.006 30.8352C106.667 30.2813 106.519 29.6334 106.584 28.989V21.044C106.534 20.3934 106.702 19.7445 107.061 19.1978C107.589 18.7994 108.233 18.5837 108.897 18.5837C109.56 18.5837 110.205 18.7994 110.732 19.1978C111.072 19.7511 111.22 20.3995 111.153 21.044L111.098 28.989ZM99.8089 28.7912C99.8089 30.2198 99.6869 32.4286 101.838 33.8571C103.535 35 105.952 35 108.836 35C111.719 35 114.147 35 115.844 33.9011C117.984 32.4725 117.873 30.2637 117.873 28.8352V21.2308C117.873 19.8132 117.984 17.5934 115.844 16.1758C114.147 15.0549 111.774 15 108.836 15C105.897 15 103.535 15.0549 101.838 16.1758C99.6869 17.5934 99.8089 19.8132 99.8089 21.2308V28.7912ZM67.3059 23.1429V18.8022H69.1024C69.4242 18.7605 69.7512 18.7858 70.0624 18.8767C70.3737 18.9675 70.6624 19.1218 70.91 19.3297C71.2528 19.7796 71.4148 20.3396 71.3646 20.9011C71.3977 21.4803 71.2506 22.0557 70.9432 22.5494C70.6585 22.7826 70.3286 22.9556 69.9739 23.0576C69.6192 23.1597 69.2471 23.1887 68.8806 23.1429H67.3059ZM60.486 15.2198V34.8022H67.2727V26.7143H68.9139C69.8676 26.7143 70.7769 26.7143 70.8545 29.011L70.9432 31.3077C70.9083 32.1143 71.0133 32.9209 71.2537 33.6923C71.4335 34.1605 71.7755 34.55 72.2185 34.7912H79.105C77.3862 33.8132 77.4416 32.8352 77.3529 31.022L77.2642 29.1099C77.3014 28.1197 77.0049 27.1454 76.4214 26.3407C75.8279 25.7093 75.0542 25.2722 74.2035 25.0879V25.011C75.1048 24.8905 75.9499 24.5081 76.6321 23.9121C77.4029 22.86 77.7722 21.5712 77.6745 20.2747C77.7613 19.5382 77.6786 18.7918 77.4328 18.0914C77.187 17.3911 76.7843 16.7549 76.2551 16.2308C75.1252 15.4085 73.7203 15.0466 72.3294 15.2198H60.486ZM25 15.2198V34.8022H31.7756V26.967H36.2113V23.3846H31.7756V18.989H39.8265V15.2198H25Z" fill="white"/>
</svg>
