<svg width="170" height="20" viewBox="0 0 170 20" fill="none" xmlns="http://www.w3.org/2000/svg">
<path d="M164.855 19.8022V4.07692H170V0.21978H152.945V4.07692H158.079V19.8022H164.855ZM114.853 0.21978V19.8022H118.945V7.07692H119.055L124.112 19.8022H132.385V0.21978H128.293V12.956H128.171L123.147 0.21978H114.853ZM86.0978 13.989C86.1629 14.6334 86.015 15.2813 85.6764 15.8352C85.1491 16.2335 84.5043 16.4493 83.8412 16.4493C83.178 16.4493 82.5332 16.2335 82.0059 15.8352C81.6673 15.2813 81.5194 14.6334 81.5845 13.989V6.04396C81.5342 5.39335 81.7018 4.74449 82.0613 4.1978C82.5887 3.79943 83.2335 3.58368 83.8966 3.58368C84.5597 3.58368 85.2045 3.79943 85.7319 4.1978C86.072 4.75109 86.22 5.39949 86.1533 6.04396L86.0978 13.989ZM74.8089 13.7912C74.8089 15.2198 74.6869 17.4286 76.8382 18.8571C78.5349 20 80.9524 20 83.8356 20C86.7188 20 89.1474 20 90.8441 18.9011C92.9843 17.4725 92.8734 15.2637 92.8734 13.8352V6.23077C92.8734 4.81319 92.9843 2.59341 90.8441 1.17582C89.1474 0.0549451 86.7743 0 83.8356 0C80.8969 0 78.5349 0.0549451 76.8382 1.17582C74.6869 2.59341 74.8089 4.81319 74.8089 6.23077V13.7912ZM42.3059 8.14286V3.8022H44.1024C44.4242 3.76047 44.7512 3.78584 45.0624 3.87668C45.3737 3.96751 45.6624 4.12181 45.91 4.32967C46.2528 4.77955 46.4148 5.33956 46.3646 5.9011C46.3977 6.48033 46.2506 7.05567 45.9432 7.54945C45.6585 7.78264 45.3286 7.95559 44.9739 8.05764C44.6192 8.1597 44.2471 8.1887 43.8806 8.14286H42.3059ZM35.486 0.21978V19.8022H42.2727V11.7143H43.9139C44.8676 11.7143 45.7769 11.7143 45.8545 14.011L45.9432 16.3077C45.9083 17.1143 46.0133 17.9209 46.2537 18.6923C46.4335 19.1605 46.7755 19.55 47.2185 19.7912H54.105C52.3862 18.8132 52.4416 17.8352 52.3529 16.022L52.2642 14.1099C52.3014 13.1197 52.0049 12.1454 51.4214 11.3407C50.8279 10.7093 50.0542 10.2722 49.2035 10.0879V10.011C50.1048 9.89053 50.9499 9.50814 51.6321 8.91209C52.4029 7.86003 52.7722 6.5712 52.6745 5.27472C52.7613 4.53821 52.6786 3.79179 52.4328 3.09143C52.187 2.39107 51.7843 1.75495 51.2551 1.23077C50.1252 0.408462 48.7203 0.0466407 47.3294 0.21978H35.486ZM0 0.21978V19.8022H6.7756V11.967H11.2113V8.38461H6.7756V3.98901H14.8265V0.21978H0Z" fill="white"/>
</svg>
