<svg width="24" height="14" fill="none" xmlns="http://www.w3.org/2000/svg"><path d="M23.786 12.214c-.064-.108-.463-.975-2.384-2.757-2.01-1.866-1.74-1.563.681-4.79 1.475-1.965 2.065-3.165 1.88-3.678-.175-.49-1.26-.36-1.26-.36l-3.606.02s-.267-.035-.467.083c-.193.117-.318.387-.318.387s-.571 1.521-1.333 2.814c-1.607 2.73-2.25 2.873-2.513 2.704-.61-.395-.458-1.587-.458-2.434 0-2.644.4-3.747-.781-4.032-.393-.094-.681-.157-1.685-.168C10.255-.01 9.165.008 8.548.31c-.411.201-.728.65-.534.675.238.032.778.146 1.065.536.37.502.357 1.633.357 1.633s.213 3.113-.497 3.5c-.487.266-1.155-.276-2.587-2.753-.734-1.267-1.289-2.67-1.289-2.67s-.106-.26-.297-.4a1.495 1.495 0 0 0-.555-.224L.781.627S.268.642.079.866c-.168.2-.013.61-.013.61s2.685 6.281 5.724 9.448c2.789 2.903 5.954 2.712 5.954 2.712h1.434s.434-.048.654-.286c.204-.22.197-.63.197-.63s-.029-1.925.865-2.209c.881-.279 2.012 1.86 3.21 2.684.907.623 1.595.486 1.595.486l3.206-.045s1.677-.103.882-1.422Z" fill="#fff"/></svg>