<svg width="2328" height="208" fill="none" xmlns="http://www.w3.org/2000/svg"><path d="M8.616 205c-2.112 0-3.936-.768-5.472-2.304-1.536-1.536-2.304-3.36-2.304-5.472V11.176c0-2.112.768-3.936 2.304-5.472C4.68 4.168 6.504 3.4 8.616 3.4H157.8c2.112 0 3.936.768 5.472 2.304 1.536 1.536 2.304 3.36 2.304 5.472v43.488c0 2.112-.768 3.936-2.304 5.472-1.536 1.536-3.36 2.304-5.472 2.304H72.84v13.824h25.92c25.344 0 45.408 5.664 60.192 16.992 14.784 11.136 22.176 26.688 22.176 46.656 0 20.352-7.296 36.288-21.888 47.808-14.4 11.52-34.56 17.28-60.48 17.28H8.616ZM93 155.464c4.224 0 7.488-1.536 9.792-4.608 2.304-3.072 3.456-6.72 3.456-10.944 0-4.032-1.248-7.584-3.744-10.656-2.496-3.264-5.664-4.896-9.504-4.896H72.84v31.104H93ZM202.116 205c-2.112 0-3.936-.768-5.472-2.304-1.536-1.536-2.304-3.36-2.304-5.472V11.176c0-2.112.768-3.936 2.304-5.472 1.536-1.536 3.36-2.304 5.472-2.304H349.86c2.112 0 3.936.768 5.472 2.304 1.536 1.536 2.304 3.36 2.304 5.472v40.608c0 2.112-.768 3.936-2.304 5.472-1.536 1.536-3.36 2.304-5.472 2.304h-86.4v18.144h80.064c2.112 0 3.936.768 5.472 2.304 1.536 1.536 2.304 3.36 2.304 5.472v37.44c0 2.112-.768 3.936-2.304 5.472-1.536 1.536-3.36 2.304-5.472 2.304H263.46v18.144h88.704c2.112 0 3.936.768 5.472 2.304 1.536 1.536 2.304 3.36 2.304 5.472v40.608c0 2.112-.768 3.936-2.304 5.472-1.536 1.536-3.36 2.304-5.472 2.304H202.116Zm274.208 2.88c-28.992 0-52.032-6.336-69.121-19.008-17.087-12.864-26.207-32.544-27.359-59.04-.192-5.184-.288-13.632-.288-25.344 0-11.904.096-20.544.288-25.92 1.152-25.728 10.464-45.12 27.936-58.176C425.252 7.144 448.1.52 476.324.52c17.28 0 33.12 2.592 47.52 7.776 14.592 5.184 26.4 13.344 35.424 24.48 9.216 10.944 13.92 24.768 14.112 41.472 0 1.728-.672 3.264-2.016 4.608-1.152 1.152-2.592 1.728-4.32 1.728h-58.752c-3.072 0-5.376-.576-6.912-1.728-1.344-1.152-2.592-3.36-3.744-6.624-2.112-5.76-4.896-9.792-8.352-12.096-3.456-2.304-7.872-3.456-13.248-3.456-6.72 0-11.904 1.824-15.552 5.472-3.648 3.456-5.568 9.408-5.76 17.856-.192 5.184-.288 13.152-.288 23.904s.096 18.912.288 24.48c.192 8.448 2.112 14.496 5.76 18.144 3.648 3.456 8.832 5.184 15.552 5.184 10.944 0 18.144-5.184 21.6-15.552.96-3.264 2.112-5.472 3.456-6.624 1.536-1.152 3.936-1.728 7.2-1.728h58.752c1.728 0 3.168.672 4.32 2.016 1.344 1.152 2.016 2.592 2.016 4.32-.192 16.704-4.896 30.624-14.112 41.76-9.024 10.944-20.832 19.008-35.424 24.192-14.4 5.184-30.24 7.776-47.52 7.776ZM648.662 205c-2.112 0-3.936-.768-5.472-2.304-1.536-1.536-2.304-3.36-2.304-5.472V65.32h-47.808c-2.112 0-3.936-.768-5.472-2.304-1.536-1.536-2.304-3.36-2.304-5.472V11.176c0-2.112.768-3.936 2.304-5.472 1.536-1.536 3.36-2.304 5.472-2.304h168.768c2.112 0 3.936.768 5.472 2.304 1.536 1.536 2.304 3.36 2.304 5.472v46.368c0 2.112-.768 3.936-2.304 5.472-1.536 1.536-3.36 2.304-5.472 2.304h-47.808v131.904c0 2.112-.768 3.936-2.304 5.472-1.536 1.536-3.36 2.304-5.472 2.304h-57.6Zm232.943 2.88c-28.992 0-52.032-6.336-69.12-19.008-17.088-12.864-26.208-32.544-27.36-59.04-.192-5.184-.288-13.632-.288-25.344 0-11.904.096-20.544.288-25.92 1.152-25.728 10.464-45.12 27.936-58.176C830.533 7.144 853.381.52 881.605.52c17.28 0 33.12 2.592 47.52 7.776 14.592 5.184 26.4 13.344 35.424 24.48 9.216 10.944 13.92 24.768 14.112 41.472 0 1.728-.672 3.264-2.016 4.608-1.152 1.152-2.592 1.728-4.32 1.728h-58.752c-3.072 0-5.376-.576-6.912-1.728-1.344-1.152-2.592-3.36-3.744-6.624-2.112-5.76-4.896-9.792-8.352-12.096-3.456-2.304-7.872-3.456-13.248-3.456-6.72 0-11.904 1.824-15.552 5.472-3.648 3.456-5.568 9.408-5.76 17.856-.192 5.184-.288 13.152-.288 23.904s.096 18.912.288 24.48c.192 8.448 2.112 14.496 5.76 18.144 3.648 3.456 8.832 5.184 15.552 5.184 10.944 0 18.144-5.184 21.6-15.552.96-3.264 2.112-5.472 3.456-6.624 1.536-1.152 3.936-1.728 7.2-1.728h58.752c1.728 0 3.168.672 4.32 2.016 1.344 1.152 2.016 2.592 2.016 4.32-.192 16.704-4.896 30.624-14.112 41.76-9.024 10.944-20.832 19.008-35.424 24.192-14.4 5.184-30.24 7.776-47.52 7.776ZM1009.3 205c-2.11 0-3.93-.768-5.47-2.304-1.53-1.536-2.3-3.36-2.3-5.472V11.176c0-2.112.77-3.936 2.3-5.472 1.54-1.536 3.36-2.304 5.47-2.304h147.75c2.11 0 3.93.768 5.47 2.304 1.54 1.536 2.3 3.36 2.3 5.472v40.608c0 2.112-.76 3.936-2.3 5.472-1.54 1.536-3.36 2.304-5.47 2.304h-86.4v18.144h80.06c2.11 0 3.94.768 5.47 2.304 1.54 1.536 2.31 3.36 2.31 5.472v37.44c0 2.112-.77 3.936-2.31 5.472-1.53 1.536-3.36 2.304-5.47 2.304h-80.06v18.144h88.7c2.11 0 3.94.768 5.47 2.304 1.54 1.536 2.31 3.36 2.31 5.472v40.608c0 2.112-.77 3.936-2.31 5.472-1.53 1.536-3.36 2.304-5.47 2.304H1009.3Zm186.63 0c-2.12 0-4.04-.768-5.76-2.304-1.54-1.536-2.31-3.36-2.31-5.472V151.72c0-4.224 2.59-6.816 7.78-7.776 8.83-1.728 14.59-9.408 17.28-23.04 2.69-13.632 4.03-31.776 4.03-54.432V11.176c0-2.112.77-3.936 2.3-5.472 1.54-1.536 3.36-2.304 5.48-2.304h163.58c2.11 0 3.94.768 5.47 2.304 1.54 1.536 2.31 3.36 2.31 5.472v186.048c0 2.112-.77 3.936-2.31 5.472-1.53 1.536-3.36 2.304-5.47 2.304h-56.45c-2.11 0-3.93-.768-5.47-2.304-1.54-1.536-2.3-3.36-2.3-5.472V66.76h-38.02v8.928c0 33.792-2.11 59.616-6.34 77.472-4.03 17.664-12.48 30.72-25.34 39.168-12.67 8.448-32.16 12.672-58.46 12.672Zm234.28 0c-2.12 0-4.04-.768-5.76-2.304-1.54-1.536-2.31-3.36-2.31-5.472V151.72c0-4.224 2.59-6.816 7.78-7.776 8.83-1.728 14.59-9.408 17.28-23.04 2.69-13.632 4.03-31.776 4.03-54.432V11.176c0-2.112.77-3.936 2.3-5.472 1.54-1.536 3.36-2.304 5.48-2.304h163.58c2.11 0 3.94.768 5.47 2.304 1.54 1.536 2.31 3.36 2.31 5.472v186.048c0 2.112-.77 3.936-2.31 5.472-1.53 1.536-3.36 2.304-5.47 2.304h-56.45c-2.11 0-3.93-.768-5.47-2.304-1.54-1.536-2.3-3.36-2.3-5.472V66.76h-38.02v8.928c0 33.792-2.11 59.616-6.34 77.472-4.03 17.664-12.48 30.72-25.34 39.168C1476 200.776 1456.51 205 1430.21 205Zm239.75 0c-2.11 0-3.94-.768-5.47-2.304-1.54-1.536-2.31-3.36-2.31-5.472V11.176c0-2.112.77-3.936 2.31-5.472 1.53-1.536 3.36-2.304 5.47-2.304h147.74c2.12 0 3.94.768 5.48 2.304 1.53 1.536 2.3 3.36 2.3 5.472v40.608c0 2.112-.77 3.936-2.3 5.472-1.54 1.536-3.36 2.304-5.48 2.304h-86.4v18.144h80.07c2.11 0 3.93.768 5.47 2.304 1.54 1.536 2.3 3.36 2.3 5.472v37.44c0 2.112-.76 3.936-2.3 5.472-1.54 1.536-3.36 2.304-5.47 2.304h-80.07v18.144h88.71c2.11 0 3.93.768 5.47 2.304 1.54 1.536 2.3 3.36 2.3 5.472v40.608c0 2.112-.76 3.936-2.3 5.472-1.54 1.536-3.36 2.304-5.47 2.304h-150.05Zm192.09 0c-2.11 0-3.93-.768-5.47-2.304-1.53-1.536-2.3-3.36-2.3-5.472V11.176c0-2.112.77-3.936 2.3-5.472 1.54-1.536 3.36-2.304 5.47-2.304h87.27c26.88 0 48 5.952 63.36 17.856 15.55 11.904 23.33 29.472 23.33 52.704 0 23.04-7.68 40.224-23.04 51.552-15.36 11.136-36.58 16.704-63.65 16.704h-20.16v55.008c0 2.112-.77 3.936-2.31 5.472-1.53 1.536-3.36 2.304-5.47 2.304h-59.33Zm85.83-116.064c3.45 0 6.53-1.248 9.21-3.744 2.69-2.688 4.04-6.624 4.04-11.808 0-4.416-1.06-8.256-3.17-11.52-2.11-3.264-5.47-4.896-10.08-4.896h-20.16v31.968h20.16ZM2065.12 205c-2.12 0-3.94-.768-5.48-2.304-1.53-1.536-2.3-3.36-2.3-5.472V11.176c0-2.112.77-3.936 2.3-5.472 1.54-1.536 3.36-2.304 5.48-2.304h56.44c2.12 0 3.94.768 5.48 2.304 1.53 1.536 2.3 3.36 2.3 5.472v55.008h18.72c28.42 0 50.21 5.664 65.38 16.992 15.16 11.328 22.75 28.416 22.75 51.264 0 22.848-7.68 40.32-23.04 52.416-15.36 12.096-37.06 18.144-65.09 18.144h-82.94Zm195.84 0c-2.12 0-3.94-.768-5.48-2.304-1.53-1.536-2.3-3.36-2.3-5.472V11.176c0-2.112.77-3.936 2.3-5.472 1.54-1.536 3.36-2.304 5.48-2.304h58.75c2.11 0 3.93.768 5.47 2.304 1.54 1.536 2.3 3.36 2.3 5.472v186.048c0 2.112-.76 3.936-2.3 5.472-1.54 1.536-3.36 2.304-5.47 2.304h-58.75Zm-112.9-53.568c4.42 0 7.68-1.536 9.79-4.608 2.31-3.072 3.46-7.008 3.46-11.808 0-4.992-1.35-8.832-4.03-11.52-2.5-2.688-5.57-4.032-9.22-4.032h-18.72v31.968h18.72Z" fill="#677E72" fill-opacity=".04"/></svg>