<svg width="170" height="20" fill="none" xmlns="http://www.w3.org/2000/svg"><path d="M164.855 19.802V4.077H170V.22h-17.055v3.857h5.134v15.725h6.776ZM114.853.22v19.582h4.092V7.077h.11l5.057 12.725h8.273V.22h-4.092v12.736h-.122L123.147.22h-8.294ZM86.098 13.989a2.967 2.967 0 0 1-.422 1.846 3.045 3.045 0 0 1-3.67 0 2.967 2.967 0 0 1-.421-1.846V6.044c-.05-.65.117-1.3.476-1.846a3.046 3.046 0 0 1 3.67 0c.341.553.489 1.201.422 1.846l-.055 7.945Zm-11.29-.198c0 1.429-.121 3.638 2.03 5.066C78.535 20 80.952 20 83.836 20c2.883 0 5.311 0 7.008-1.099 2.14-1.428 2.03-3.637 2.03-5.066V6.231c0-1.418.11-3.638-2.03-5.055C89.147.055 86.774 0 83.836 0c-2.94 0-5.301.055-6.998 1.176-2.151 1.417-2.03 3.637-2.03 5.055v7.56ZM42.307 8.143v-4.34h1.796a2.349 2.349 0 0 1 1.808.527c.343.45.505 1.01.455 1.571a2.814 2.814 0 0 1-.422 1.648 2.714 2.714 0 0 1-2.062.594h-1.575ZM35.486.22v19.582h6.787v-8.088h1.64c.955 0 1.864 0 1.942 2.297l.088 2.297c-.035.806.07 1.613.31 2.384.18.468.523.858.965 1.1h6.887c-1.719-.979-1.663-1.957-1.752-3.77l-.089-1.912a4.433 4.433 0 0 0-.843-2.77 4.29 4.29 0 0 0-2.218-1.252v-.077a4.622 4.622 0 0 0 2.43-1.099 5.459 5.459 0 0 0 1.041-3.637 4.87 4.87 0 0 0-.241-2.184 4.906 4.906 0 0 0-1.178-1.86A5.516 5.516 0 0 0 47.33.22H35.486ZM0 .22v19.582h6.776v-7.835h4.435V8.385H6.776V3.989h8.05V.219H0Z" fill="#fff"/></svg>