<svg width="220" height="50" fill="none" xmlns="http://www.w3.org/2000/svg"><path fill="#78003E" d="M0 0h220v50H0z"/><path d="M189.855 34.802V19.077H195V15.22h-17.055v3.857h5.134v15.725h6.776ZM139.853 15.22v19.582h4.092V22.077h.11l5.057 12.725h8.273V15.22h-4.092v12.736h-.122l-5.024-12.736h-8.294Zm-28.755 13.769a2.965 2.965 0 0 1-.422 1.846 3.044 3.044 0 0 1-3.67 0 2.965 2.965 0 0 1-.422-1.846v-7.945c-.05-.65.118-1.3.477-1.846a3.047 3.047 0 0 1 3.671 0c.34.553.488 1.201.421 1.846l-.055 7.945Zm-11.29-.198c0 1.429-.121 3.638 2.03 5.066C103.535 35 105.952 35 108.836 35c2.883 0 5.311 0 7.008-1.099 2.14-1.429 2.029-3.637 2.029-5.066v-7.604c0-1.418.111-3.638-2.029-5.055-1.697-1.121-4.07-1.176-7.008-1.176-2.939 0-5.301.055-6.998 1.176-2.151 1.417-2.03 3.637-2.03 5.055v7.56Zm-32.502-5.648v-4.34h1.796a2.348 2.348 0 0 1 1.808.527c.343.45.505 1.01.455 1.571a2.814 2.814 0 0 1-.422 1.648 2.713 2.713 0 0 1-2.062.594h-1.575Zm-6.82-7.923v19.582h6.787v-8.088h1.64c.955 0 1.864 0 1.942 2.297l.088 2.297c-.035.806.07 1.613.31 2.384.18.468.522.858.966 1.1h6.886c-1.719-.979-1.663-1.957-1.752-3.77l-.089-1.912a4.433 4.433 0 0 0-.843-2.77 4.29 4.29 0 0 0-2.218-1.252v-.077a4.622 4.622 0 0 0 2.43-1.099 5.459 5.459 0 0 0 1.041-3.637 4.87 4.87 0 0 0-.241-2.184 4.906 4.906 0 0 0-1.178-1.86 5.516 5.516 0 0 0-3.926-1.011H60.486ZM25 15.22v19.582h6.776v-7.835h4.435v-3.582h-4.435v-4.396h8.05v-3.77H25Z" fill="#fff"/></svg>