<?xml version="1.0" encoding="utf-8"?><svg viewBox="0 0 137 83" xmlns="http://www.w3.org/2000/svg" xmlns:xlink="http://www.w3.org/1999/xlink"><style>:root>svg{display:none}:root>svg:target{display:block}</style><svg fill="none" viewBox="0 0 41 16" id="icon-arrow-prev" xmlns="http://www.w3.org/2000/svg"><path d="M.293 7.293a1 1 0 0 0 0 1.414l6.364 6.364a1 1 0 0 0 1.414-1.414L2.414 8l5.657-5.657A1 1 0 0 0 6.657.93L.293 7.293ZM41 7H1v2h40V7Z" fill="#fff"/></svg><svg fill="none" viewBox="0 0 27 8" id="icon-arrow-search" xmlns="http://www.w3.org/2000/svg"><path d="M26.354 4.354a.5.5 0 0 0 0-.708L23.172.464a.5.5 0 1 0-.707.708L25.293 4l-2.828 2.828a.5.5 0 1 0 .707.708l3.182-3.182ZM0 4.5h26v-1H0v1Z" fill="#191919"/></svg><svg fill="none" viewBox="0 0 29 16" id="icon-average-arrow" xmlns="http://www.w3.org/2000/svg"><path d="M28.707 8.707a1 1 0 0 0 0-1.414L22.343.929a1 1 0 1 0-1.414 1.414L26.586 8l-5.657 5.657a1 1 0 0 0 1.414 1.414l6.364-6.364ZM0 9h28V7H0v2Z" fill="currentColor"/></svg><svg fill="none" viewBox="0 0 24 24" id="icon-basket" xmlns="http://www.w3.org/2000/svg"><path d="M16 7.385c0 2.029-1.589 3.634-3.5 3.634S9 9.414 9 7.385c0-2.03 1.589-3.635 3.5-3.635S16 5.355 16 7.385Z" fill="#667E71" stroke="#fff" stroke-width="1.5"/><path fill="#667E71" stroke="#fff" stroke-width="1.5" d="M4.75 8.135h15.5V21.25H4.75z"/><rect x="15.334" y="7.385" width="1.417" height="4.385" rx=".708" fill="#fff"/><rect x="8.25" y="7.385" width="1.417" height="4.385" rx=".708" fill="#fff"/></svg><svg fill="none" viewBox="0 0 53 16" id="icon-btn-slider" xmlns="http://www.w3.org/2000/svg"><path d="M52.707 8.707a1 1 0 0 0 0-1.414L46.343.929a1 1 0 1 0-1.414 1.414L50.586 8l-5.657 5.657a1 1 0 0 0 1.414 1.414l6.364-6.364ZM0 9h52V7H0v2Z" fill="#fff"/></svg><svg fill="none" viewBox="0 0 30 16" id="icon-burger" xmlns="http://www.w3.org/2000/svg"><path fill="#fff" d="M0 0h30v1.778H0zm0 7.111h30v1.778H0zm0 7.112h30v1.778H0z"/></svg><svg fill="none" viewBox="0 0 16 16" id="icon-close" xmlns="http://www.w3.org/2000/svg"><path d="M0 1.6 1.6 0 8 6.4 14.4 0 16 1.6 9.6 8l6.4 6.4-1.6 1.6L8 9.6 1.6 16 0 14.4 6.4 8 0 1.6Z" fill="#667E71"/></svg><svg fill="none" viewBox="0 0 18 18" id="icon-cross" xmlns="http://www.w3.org/2000/svg"><path fill-rule="evenodd" clip-rule="evenodd" d="M16.76.213a.725.725 0 0 1 1.027 0 .726.726 0 0 1 0 1.026L10.027 9l7.76 7.76a.726.726 0 0 1-1.026 1.027L9 10.027l-7.76 7.76a.726.726 0 0 1-1.027-1.026L7.973 9 .213 1.24A.726.726 0 0 1 1.24.212L9 7.973l7.76-7.76Z" fill="currentColor"/></svg><svg fill="none" viewBox="0 0 109 37" id="icon-eugenia" xmlns="http://www.w3.org/2000/svg"><path d="M13.895 9.115c.03.06.06.105.09.135.03 0 .045.03.045.09 0 .18-.375.525-1.125 1.035-.75.48-1.68 1.035-2.79 1.665-1.11.6-2.28 1.215-3.51 1.845-1.23.6-2.325 1.095-3.285 1.485 0 .06-.03.255-.09.585-.06.33-.09.54-.09.63v.855c0 .69.105 1.38.315 2.07.21.66.525 1.26.945 1.8.45.54.99.975 1.62 1.305.63.33 1.365.495 2.205.495.36 0 .795-.06 1.305-.18.54-.15 1.05-.345 1.53-.585.51-.27.96-.585 1.35-.945.39-.36.63-.765.72-1.215.36.03.57.135.63.315.09.18.135.3.135.36 0 .78-.195 1.455-.585 2.025-.36.54-.825.99-1.395 1.35-.54.33-1.125.585-1.755.765-.6.15-1.14.225-1.62.225-2.58 0-4.455-.72-5.625-2.16-1.17-1.44-1.755-3.33-1.755-5.67 0-.12.03-.39.09-.81a7.4 7.4 0 0 0 .09-.855c0-.03-.06-.06-.18-.09-.12-.06-.255-.12-.405-.18a1.41 1.41 0 0 1-.36-.27c-.09-.15-.135-.345-.135-.585s.09-.435.27-.585c.18-.15.39-.285.63-.405l.45-.27c.27-1.14.585-2.235.945-3.285a25.5 25.5 0 0 1 1.44-3.24c-.24 0-.495-.03-.765-.09s-.405-.27-.405-.63c0-.42.24-.885.72-1.395.51-.51 1.08-.99 1.71-1.44.66-.45 1.305-.825 1.935-1.125.63-.33 1.08-.495 1.35-.495.12 0 .195.03.225.09.06.03.15.045.27.045.24 0 .54-.045.9-.135.39-.09.795-.195 1.215-.315.42-.12.81-.225 1.17-.315.39-.09.705-.135.945-.135.27 0 .465.09.585.27.15.18.225.375.225.585 0 .24-.15.42-.45.54-.3.09-.57.165-.81.225-.84.15-1.725.42-2.655.81-.9.36-1.74.765-2.52 1.215-.3.33-.66.81-1.08 1.44-.42.6-.825 1.29-1.215 2.07-.39.78-.75 1.59-1.08 2.43-.3.84-.495 1.635-.585 2.385l.765-.36c2.31-1.11 4.185-1.98 5.625-2.61 1.47-.63 2.61-.945 3.42-.945.15 0 .285.06.405.18Zm18.321 8.415c0 .27-.18.555-.54.855-.36.3-.78.585-1.26.855-.48.24-.975.45-1.485.63-.48.18-.84.27-1.08.27-.27 0-.57-.075-.9-.225-.3-.15-.6-.33-.9-.54-.27-.21-.51-.405-.72-.585-.21-.18-.345-.3-.405-.36-.09.09-.225.27-.405.54-.18.27-.405.57-.675.9-.24.3-.51.57-.81.81-.27.24-.555.36-.855.36-.78 0-1.455-.42-2.025-1.26-.57-.84-1.05-1.8-1.44-2.88a28.636 28.636 0 0 1-.855-3.105c-.18-1.02-.27-1.71-.27-2.07 0-.21.105-.375.315-.495.24-.15.42-.225.54-.225.42 0 .705.15.855.45.15.27.225.57.225.9 0 .27.075.75.225 1.44.18.69.39 1.395.63 2.115.24.72.495 1.365.765 1.935.27.54.51.81.72.81.39 0 .72-.24.99-.72.3-.51.54-1.08.72-1.71.18-.66.315-1.275.405-1.845.09-.6.135-.99.135-1.17v-.27l.09-.54c.03-.18.045-.345.045-.495.03-.15.045-.255.045-.315 0-.21-.045-.345-.135-.405-.09-.09-.135-.255-.135-.495 0-.18.09-.345.27-.495.18-.18.57-.27 1.17-.27.24 0 .42.075.54.225.15.12.255.27.315.45s.09.36.09.54c.03.15.045.255.045.315 0 .03-.015.24-.045.63s-.06.825-.09 1.305c0 .45-.015.885-.045 1.305-.03.42-.045.675-.045.765 0 .09.045.27.135.54.09.27.195.555.315.855.15.27.315.525.495.765.18.21.375.315.585.315.36 0 .69-.045.99-.135.33-.12.63-.24.9-.36.3-.15.57-.27.81-.36.24-.12.465-.18.675-.18.27 0 .51.06.72.18.24.12.36.27.36.45Zm12.967 3.51c0 .33-.12.555-.36.675s-.36.285-.36.495c-.03-.03.03.135.18.495s.285.735.405 1.125c.21.81.39 1.515.54 2.115.18.6.315 1.155.405 1.665.12.51.21 1.02.27 1.53.06.51.09 1.08.09 1.71 0 .63-.105 1.275-.315 1.935-.21.66-.51 1.245-.9 1.755-.39.51-.87.93-1.44 1.26-.57.33-1.215.495-1.935.495-1.11 0-1.995-.225-2.655-.675-.63-.45-1.11-.96-1.44-1.53-.33-.57-.54-1.14-.63-1.71-.09-.54-.135-.9-.135-1.08 0-1.11.285-2.22.855-3.33.57-1.11 1.2-2.115 1.89-3.015.69-.9 1.32-1.65 1.89-2.25.57-.6.855-.945.855-1.035l-.495-1.485c-.3.36-.57.765-.81 1.215-.21.42-.45.825-.72 1.215-.24.36-.54.675-.9.945-.33.24-.75.36-1.26.36-.54 0-1.08-.165-1.62-.495-.54-.33-1.02-.825-1.44-1.485-.42-.66-.765-1.455-1.035-2.385-.24-.93-.36-2.01-.36-3.24 0-.69.105-1.545.315-2.565.21-1.05.54-2.055.99-3.015.45-.96 1.005-1.77 1.665-2.43.69-.69 1.485-1.035 2.385-1.035.51 0 .975.09 1.395.27.45.18.675.405.675.675 0 .24-.045.435-.135.585-.09.15-.21.3-.36.45-.09-.06-.195-.12-.315-.18-.09-.06-.225-.09-.405-.09-.66 0-1.26.3-1.8.9-.51.57-.945 1.29-1.305 2.16-.36.84-.645 1.725-.855 2.655-.18.93-.27 1.74-.27 2.43 0 1.53.255 2.7.765 3.51.51.78 1.05 1.17 1.62 1.17.27 0 .555-.195.855-.585.33-.42.63-.87.9-1.35.3-.51.555-.99.765-1.44.21-.45.33-.72.36-.81.06-.3.09-.645.09-1.035 0-.33-.015-.69-.045-1.08v-1.26c0-.78.06-1.425.18-1.935.12-.54.42-.81.9-.81.48 0 .825.15 1.035.45.21.27.315.6.315.99 0 .27-.015.6-.045.99v1.08c0 .33-.015.63-.045.9v.45c0 .18.015.45.045.81.06.33.105.675.135 1.035.06.33.105.645.135.945.06.27.105.45.135.54l.135.405c.06.18.12.315.18.405a.51.51 0 0 1 .18-.18l.225-.225c.15.09.285.27.405.54.15.24.225.375.225.405Zm-1.53 5.715c-.12-.48-.255-.96-.405-1.44-.15-.48-.3-.975-.45-1.485-.51.63-1.005 1.23-1.485 1.8-.45.6-.87 1.185-1.26 1.755-.36.57-.66 1.155-.9 1.755a6.22 6.22 0 0 0-.315 1.98c0 .93.255 1.695.765 2.295.54.6 1.125.9 1.755.9.69 0 1.335-.255 1.935-.765.63-.51.945-1.245.945-2.205 0-.63-.015-1.155-.045-1.575-.03-.42-.075-.795-.135-1.125-.03-.3-.09-.6-.18-.9-.06-.27-.135-.6-.225-.99Zm17.777-6.48c.03.06.045.15.045.27 0 .18-.135.45-.405.81-.09.12-.285.315-.585.585-.3.27-.705.54-1.215.81-.51.27-1.14.51-1.89.72-.72.21-1.575.315-2.565.315-.69 0-1.365-.15-2.025-.45a5.554 5.554 0 0 1-1.755-1.395c-.51-.63-.93-1.395-1.26-2.295-.33-.93-.495-2.01-.495-3.24 0-1.17.15-2.265.45-3.285.3-1.02.675-1.92 1.125-2.7.48-.78 1.005-1.395 1.575-1.845.57-.45 1.125-.675 1.665-.675.48 0 .96.105 1.44.315.51.18.96.42 1.35.72.42.3.75.645.99 1.035a2 2 0 0 1 .36 1.125c0 .45-.21.915-.63 1.395-.39.48-.87.93-1.44 1.35-.57.39-1.14.72-1.71.99-.57.24-1.02.36-1.35.36a.688.688 0 0 1-.495-.225 1.11 1.11 0 0 1-.18-.63c0-.42.18-.75.54-.99.39-.24.81-.45 1.26-.63.45-.21.855-.45 1.215-.72.39-.27.585-.645.585-1.125 0-.06-.075-.21-.225-.45-.15-.24-.555-.36-1.215-.36-.3 0-.645.18-1.035.54-.39.33-.765.795-1.125 1.395-.36.57-.66 1.26-.9 2.07-.24.78-.36 1.635-.36 2.565 0 .78.135 1.485.405 2.115.3.63.675 1.17 1.125 1.62.45.42.975.75 1.575.99s1.215.36 1.845.36c.45 0 .93-.09 1.44-.27.54-.21 1.035-.42 1.485-.63.48-.24.885-.45 1.215-.63.36-.21.585-.315.675-.315.09 0 .18.045.27.135.12.09.195.18.225.27Zm16.679-.81c0 .18-.06.36-.18.54-.12.18-.27.345-.45.495-.15.15-.33.285-.54.405a1.12 1.12 0 0 1-.495.135c-.51 0-1.17-.105-1.98-.315-.78-.24-1.41-.6-1.89-1.08-.51-.51-.96-1.11-1.35-1.8-.39-.72-.825-1.77-1.305-3.15-.33 1.32-.72 2.625-1.17 3.915-.42 1.29-1.11 2.475-2.07 3.555-.06.06-.15.09-.27.09-.21 0-.435-.105-.675-.315-.24-.21-.36-.42-.36-.63 0-.21-.03-.69-.09-1.44-.03-.78-.075-1.635-.135-2.565l-.18-2.88c-.03-.99-.045-1.8-.045-2.43 0-.3.015-.69.045-1.17.03-.51.12-.945.27-1.305.03-.06.135-.18.315-.36.21-.18.435-.27.675-.27.21 0 .33.135.36.405.03.27.045.57.045.9v7.11c0 .15.015.36.045.63.06.27.135.465.225.585.33-.72.63-1.56.9-2.52.3-.99.585-1.92.855-2.79.27-.9.54-1.65.81-2.25.27-.63.54-.945.81-.945.3 0 .54.06.72.18.18.12.33.36.45.72.15.87.27 1.65.36 2.34.09.66.195 1.26.315 1.8.15.54.345 1.05.585 1.53.27.45.63.87 1.08 1.26.42.39.885.675 1.395.855.54.18 1.005.27 1.395.27.18 0 .375-.03.585-.09.21-.09.36-.135.45-.135.12 0 .225.105.315.315.12.21.18.345.18.405ZM83.084 4.3c0 .06-.105.18-.315.36-.21.18-.465.375-.765.585-.27.18-.555.345-.855.495-.3.15-.54.225-.72.225h-.495c-.18-.03-.375-.09-.585-.18a1.9 1.9 0 0 1-.495-.36 1.019 1.019 0 0 1-.225-.675c0-.42.15-.81.45-1.17.3-.39.69-.585 1.17-.585.09 0 .285.045.585.135.33.06.66.15.99.27.33.12.615.255.855.405.27.15.405.315.405.495Zm1.485 16.83c0 .21-.165.39-.495.54-.3.15-.525.225-.675.225-.3 0-.57-.195-.81-.585-.24-.39-.45-.84-.63-1.35-.18-.51-.33-.99-.45-1.44-.12-.48-.21-.81-.27-.99-.09-.3-.21-.66-.36-1.08-.15-.42-.3-.825-.45-1.215-.12-.39-.225-.735-.315-1.035-.09-.3-.135-.465-.135-.495 0-.42.075-.81.225-1.17.18-.36.39-.54.63-.54.27 0 .555.21.855.63.3.42.585.96.855 1.62.3.63.57 1.335.81 2.115.24.75.45 1.47.63 2.16.18.66.315 1.245.405 1.755.12.48.18.765.18.855Zm24.222-5.49c0 .54-.255 1.215-.765 2.025-.48.78-1.14 1.545-1.98 2.295-.84.75-1.815 1.395-2.925 1.935a8.208 8.208 0 0 1-3.465.765c-.54 0-1.11-.09-1.71-.27a8.2 8.2 0 0 1-1.755-.765c-.57-.36-1.08-.78-1.53-1.26a4.91 4.91 0 0 1-.99-1.71c-.18.18-.405.48-.675.9-.24.42-.51.855-.81 1.305-.3.42-.63.795-.99 1.125-.36.3-.735.45-1.125.45s-.72-.195-.99-.585c-.24-.42-.435-.87-.585-1.35-.15-.51-.255-.99-.315-1.44-.06-.45-.09-.705-.09-.765 0-.36.105-1.035.315-2.025.21-1.02.525-2.07.945-3.15.42-1.08.945-2.04 1.575-2.88.66-.84 1.425-1.26 2.295-1.26.33 0 .54.15.63.45.12.27.18.54.18.81v1.35c.15.12.3.21.45.27.18.03.33.09.45.18.15.06.255.165.315.315.09.15.135.39.135.72 0 .21-.015.405-.045.585-.03.15-.045.3-.045.45 0 .78.06 1.545.18 2.295s.36 1.425.72 2.025c.36.57.855 1.05 1.485 1.44.63.36 1.47.54 2.52.54 1.32 0 2.43-.27 3.33-.81.93-.57 1.695-1.185 2.295-1.845.63-.69 1.125-1.305 1.485-1.845.36-.57.66-.855.9-.855.39 0 .585.195.585.585Zm-15.795-1.98c0-.12-.03-.225-.09-.315a.725.725 0 0 1-.09-.315c0-.12.03-.225.09-.315a.64.64 0 0 0 .09-.36c0-.09-.03-.15-.09-.18-.06-.06-.09-.12-.09-.18-.27.06-.555.315-.855.765-.27.45-.54.975-.81 1.575-.24.6-.435 1.215-.585 1.845-.15.6-.225 1.095-.225 1.485 0 .21.06.555.18 1.035.12.48.255.795.405.945.51-1.05.975-2.07 1.395-3.06.45-.99.675-1.965.675-2.925Z" fill="#fff"/></svg><svg fill="none" viewBox="0 0 88 16" id="icon-long-arrow" xmlns="http://www.w3.org/2000/svg"><path d="M87.707 8.707a1 1 0 0 0 0-1.414L81.343.929a1 1 0 1 0-1.414 1.414L85.586 8l-5.657 5.657a1 1 0 0 0 1.414 1.414l6.364-6.364ZM0 9h87V7H0v2Z" fill="currentColor"/></svg><svg fill="none" viewBox="0 0 137 83" id="icon-olga" xmlns="http://www.w3.org/2000/svg"><path d="M30.56 33.232c.128.832.192 1.504.192 2.016.064.512.096 1.024.096 1.536 0 1.6-.224 3.488-.672 5.664a21.788 21.788 0 0 1-2.112 6.24 15.65 15.65 0 0 1-3.936 4.992c-1.6 1.344-3.648 2.016-6.144 2.016-2.304 0-4.48-.64-6.528-1.92-2.048-1.344-3.872-3.04-5.472-5.088a27.555 27.555 0 0 1-3.84-7.008C1.248 39.056.8 36.464.8 33.904c0-3.712.224-6.88.672-9.504.512-2.688 1.216-5.024 2.112-7.008 0-.192-.128-.384-.384-.576-.192-.192-.288-.448-.288-.768s.288-.736.864-1.248c.64-.512 1.376-.992 2.208-1.44.896-.512 1.76-.928 2.592-1.248.896-.384 1.568-.576 2.016-.576.256 0 .672.128 1.248.384.64.256 1.44.384 2.4.384.32 0 .64-.032.96-.096.32-.064.672-.096 1.056-.096 1.344 0 2.784.64 4.32 1.92 1.6 1.216 3.072 2.816 4.416 4.8 1.408 1.984 2.592 4.256 3.552 6.816a29.585 29.585 0 0 1 2.016 7.584Zm-3.84 3.744c0-1.216-.256-2.944-.768-5.184a32.09 32.09 0 0 0-2.304-6.72c-1.024-2.24-2.272-4.192-3.744-5.856-1.408-1.664-3.008-2.496-4.8-2.496h-.768a5.963 5.963 0 0 0-1.152-.096 8.862 8.862 0 0 0-1.248-.096 7.39 7.39 0 0 0-.672-.096c-1.024 0-1.92.48-2.688 1.44-.704.96-1.312 2.208-1.824 3.744-.448 1.536-.8 3.296-1.056 5.28a46.464 46.464 0 0 0-.384 5.952c0 .704.192 2.08.576 4.128.384 1.984 1.056 4.064 2.016 6.24 1.024 2.112 2.368 4 4.032 5.664 1.664 1.664 3.776 2.496 6.336 2.496 1.728 0 3.136-.512 4.224-1.536 1.088-1.088 1.92-2.4 2.496-3.936a20.697 20.697 0 0 0 1.344-4.704c.256-1.664.384-3.072.384-4.224Zm24.607 18.24c0 .512-.192.896-.576 1.152-.384.256-.832.384-1.344.384-.576 0-1.184-.544-1.824-1.632-.576-1.088-1.152-2.464-1.728-4.128a77.545 77.545 0 0 1-1.632-5.376c-.512-1.984-.96-3.808-1.344-5.472l-.96-4.32c-.192-1.152-.288-1.792-.288-1.92 0-.256-.128-.928-.384-2.016-.192-1.088-.48-2.784-.864-5.088-.32-2.304-.704-5.28-1.152-8.928-.384-3.712-.8-8.288-1.248-13.728 0-.576.096-1.312.288-2.208.192-.896.64-1.344 1.344-1.344.896 0 1.568.608 2.016 1.824.512 1.216.896 2.72 1.152 4.512.32 1.792.544 3.68.672 5.664.128 1.92.288 3.616.48 5.088.256 2.048.48 3.904.672 5.568.256 1.664.48 3.328.672 4.992.256 1.6.544 3.296.864 5.088.384 1.792.832 3.776 1.344 5.952l3.84 15.936Zm31.29-5.664c0 .704-.256 1.184-.768 1.44s-.768.608-.768 1.056c-.064-.064.064.288.384 1.056s.608 1.568.864 2.4c.448 1.728.832 3.232 1.152 4.512.384 1.28.672 2.464.864 3.552.256 1.088.448 2.176.576 3.264a31.43 31.43 0 0 1 .192 3.648c0 1.344-.224 2.72-.672 4.128-.448 1.408-1.088 2.656-1.92 3.744a10.351 10.351 0 0 1-3.072 2.688c-1.216.704-2.592 1.056-4.128 1.056-2.368 0-4.256-.48-5.664-1.44-1.344-.96-2.368-2.048-3.072-3.264-.704-1.216-1.152-2.432-1.344-3.648-.192-1.152-.288-1.92-.288-2.304 0-2.368.608-4.736 1.824-7.104 1.216-2.368 2.56-4.512 4.032-6.432 1.472-1.92 2.816-3.52 4.032-4.8 1.216-1.28 1.824-2.016 1.824-2.208l-1.056-3.168a15.22 15.22 0 0 0-1.728 2.592c-.448.896-.96 1.76-1.536 2.592a8.188 8.188 0 0 1-1.92 2.016c-.704.512-1.6.768-2.688.768-1.152 0-2.304-.352-3.456-1.056-1.152-.704-2.176-1.76-3.072-3.168-.896-1.408-1.632-3.104-2.208-5.088-.512-1.984-.768-4.288-.768-6.912 0-1.472.224-3.296.672-5.472a28.065 28.065 0 0 1 2.112-6.432c.96-2.048 2.144-3.776 3.552-5.184 1.472-1.472 3.168-2.208 5.088-2.208 1.088 0 2.08.192 2.976.576.96.384 1.44.864 1.44 1.44 0 .512-.096.928-.288 1.248-.192.32-.448.64-.768.96a6.276 6.276 0 0 0-.672-.384c-.192-.128-.48-.192-.864-.192-1.408 0-2.688.64-3.84 1.92-1.088 1.216-2.016 2.752-2.784 4.608a32.538 32.538 0 0 0-1.824 5.664c-.384 1.984-.576 3.712-.576 5.184 0 3.264.544 5.76 1.632 7.488 1.088 1.664 2.24 2.496 3.456 2.496.576 0 1.184-.416 1.824-1.248a22.53 22.53 0 0 0 1.92-2.88 36.784 36.784 0 0 0 1.632-3.072c.448-.96.704-1.536.768-1.728.128-.64.192-1.376.192-2.208 0-.704-.032-1.472-.096-2.304v-2.688c0-1.664.128-3.04.384-4.128.256-1.152.896-1.728 1.92-1.728s1.76.32 2.208.96c.448.576.672 1.28.672 2.112 0 .576-.032 1.28-.096 2.112v2.304c0 .704-.032 1.344-.096 1.92v.96c0 .384.032.96.096 1.728.128.704.224 1.44.288 2.208.128.704.224 1.376.288 2.016.128.576.224.96.288 1.152l.288.864c.128.384.256.672.384.864.064-.128.192-.256.384-.384l.48-.48c.32.192.608.576.864 1.152.32.512.48.8.48.864Zm-3.264 12.192a55.108 55.108 0 0 0-.864-3.072c-.32-1.024-.64-2.08-.96-3.168a257.32 257.32 0 0 1-3.168 3.84c-.96 1.28-1.856 2.528-2.688 3.744a23.008 23.008 0 0 0-1.92 3.744 13.269 13.269 0 0 0-.672 4.224c0 1.984.544 3.616 1.632 4.896 1.152 1.28 2.4 1.92 3.744 1.92 1.472 0 2.848-.544 4.128-1.632 1.344-1.088 2.016-2.656 2.016-4.704 0-1.344-.032-2.464-.096-3.36a22.48 22.48 0 0 0-.288-2.4c-.064-.64-.192-1.28-.384-1.92-.128-.576-.288-1.28-.48-2.112Zm56.837-23.712c0 1.152-.544 2.592-1.632 4.32-1.024 1.664-2.432 3.296-4.224 4.896-1.792 1.6-3.872 2.976-6.24 4.128a17.512 17.512 0 0 1-7.392 1.632c-1.152 0-2.368-.192-3.648-.576a17.492 17.492 0 0 1-3.744-1.632 16.605 16.605 0 0 1-3.264-2.688 10.473 10.473 0 0 1-2.112-3.648c-.384.384-.864 1.024-1.44 1.92a47.694 47.694 0 0 1-1.728 2.784 15.32 15.32 0 0 1-2.112 2.4c-.768.64-1.568.96-2.4.96-.832 0-1.536-.416-2.112-1.248a14.504 14.504 0 0 1-1.248-2.88 20.572 20.572 0 0 1-.672-3.072c-.128-.96-.192-1.504-.192-1.632 0-.768.224-2.208.672-4.32.448-2.176 1.12-4.416 2.016-6.72.896-2.304 2.016-4.352 3.36-6.144 1.408-1.792 3.04-2.688 4.896-2.688.704 0 1.152.32 1.344.96.256.576.384 1.152.384 1.728v2.88c.32.256.64.448.96.576.384.064.704.192.96.384.32.128.544.352.672.672.192.32.288.832.288 1.536 0 .448-.032.864-.096 1.248-.064.32-.096.64-.096.96 0 1.664.128 3.296.384 4.896s.768 3.04 1.536 4.32c.768 1.216 1.824 2.24 3.168 3.072 1.344.768 3.136 1.152 5.376 1.152 2.816 0 5.184-.576 7.104-1.728 1.984-1.216 3.616-2.528 4.896-3.936 1.344-1.472 2.4-2.784 3.168-3.936.768-1.216 1.408-1.824 1.92-1.824.832 0 1.248.416 1.248 1.248Zm-33.696-4.224c0-.256-.064-.48-.192-.672-.128-.256-.192-.48-.192-.672 0-.256.064-.48.192-.672.128-.192.192-.448.192-.768 0-.192-.064-.32-.192-.384-.128-.128-.192-.256-.192-.384-.576.128-1.184.672-1.824 1.632-.576.96-1.152 2.08-1.728 3.36a28.122 28.122 0 0 0-1.248 3.936c-.32 1.28-.48 2.336-.48 3.168 0 .448.128 1.184.384 2.208.256 1.024.544 1.696.864 2.016a141.05 141.05 0 0 0 2.976-6.528c.96-2.112 1.44-4.192 1.44-6.24Z" fill="#fff"/></svg><svg fill="none" viewBox="0 0 8 12" id="icon-pagination-prev" xmlns="http://www.w3.org/2000/svg"><path d="m7 11.25-5-5 5-5" stroke="currentColor" stroke-width="1.5"/></svg><svg fill="none" viewBox="0 0 24 24" id="icon-person" xmlns="http://www.w3.org/2000/svg"><path d="M19 20c0-3.007-2.91-5.444-6.5-5.444S6 16.993 6 20" stroke="#fff" stroke-width="1.5" stroke-linecap="round" stroke-linejoin="round"/><circle cx="12.5" cy="8.5" r="3.75" stroke="#fff" stroke-width="1.5"/></svg><svg fill="none" viewBox="0 0 24 24" id="icon-search" xmlns="http://www.w3.org/2000/svg"><circle cx="11.077" cy="11.077" r="7.385" stroke="#fff" stroke-width="1.846"/><path d="m17.077 16.616 5.539 5.538" stroke="#fff" stroke-width="1.846" stroke-linecap="round"/></svg><svg fill="none" viewBox="0 0 10 17" id="icon-small-arrow" xmlns="http://www.w3.org/2000/svg"><path d="m1 1 7.5 7.5L1 16" stroke="currentColor" stroke-width="2"/></svg><svg fill="currentColor" viewBox="0 0 25 25" xml:space="preserve" id="icon-telegram"><path class="pst0" d="m24.96 3.57-3.83 18.5a1.35 1.35 0 0 1-1.93.88l-6.04-4.44-2.61 2.67c-.61.61-1.71.39-1.71-.97v-2.89c0-.37.15-.72.42-.97l11.8-10.79c-.01-.13-.15-.24-.28-.15L6.37 14.6.73 12.91c-1.01-.52-.97-1.98.08-2.44l22.3-8.46c1.02-.44 2.11.47 1.85 1.56z"/></svg><svg fill="none" viewBox="0 0 16 22" id="icon-up" xmlns="http://www.w3.org/2000/svg"><path d="M9.031.585a1.444 1.444 0 0 0-.477-.303 1.358 1.358 0 0 0-1.097 0c-.178.069-.34.172-.477.303L1.202 6.363a1.45 1.45 0 0 0 2.051 2.051l3.308-3.322v15.297a1.444 1.444 0 1 0 2.889 0V5.092l3.308 3.322a1.45 1.45 0 0 0 2.05-2.051L9.032.585Z" fill="currentColor"/></svg><svg viewBox="0 0 24 14" fill="none" id="icon-vk" xmlns="http://www.w3.org/2000/svg"><path d="M23.786 12.214c-.064-.108-.463-.975-2.384-2.757-2.01-1.866-1.74-1.563.681-4.79 1.475-1.965 2.065-3.165 1.88-3.678-.175-.49-1.26-.36-1.26-.36l-3.606.02s-.267-.035-.467.083c-.193.117-.318.387-.318.387s-.571 1.521-1.333 2.814c-1.607 2.73-2.25 2.873-2.513 2.704-.61-.395-.458-1.587-.458-2.434 0-2.644.4-3.747-.781-4.032-.393-.094-.681-.157-1.685-.168C10.255-.01 9.165.008 8.548.31c-.411.201-.728.65-.534.675.238.032.778.146 1.065.536.37.502.357 1.633.357 1.633s.213 3.113-.497 3.5c-.487.266-1.155-.276-2.587-2.753-.734-1.267-1.289-2.67-1.289-2.67s-.106-.26-.297-.4a1.495 1.495 0 0 0-.555-.224l-3.43.02S.268.642.079.866c-.168.2-.013.61-.013.61s2.685 6.281 5.724 9.448c2.789 2.903 5.954 2.712 5.954 2.712h1.434s.434-.048.654-.286c.204-.22.197-.63.197-.63s-.029-1.925.865-2.209c.881-.279 2.012 1.86 3.21 2.684.907.623 1.595.486 1.595.486l3.206-.045s1.677-.103.882-1.422Z" fill="currentColor"/></svg><svg fill="currentColor" viewBox="0 0 32 32" id="icon-whatsapp" xmlns="http://www.w3.org/2000/svg"><path d="M26.576 5.363a14.818 14.818 0 0 0-10.511-4.354C7.856 1.009 1.2 7.664 1.2 15.874c0 2.732.737 5.291 2.022 7.491l-.038-.07-2.109 7.702 7.879-2.067c2.051 1.139 4.498 1.809 7.102 1.809h.006c8.209-.003 14.862-6.659 14.862-14.868a14.82 14.82 0 0 0-4.349-10.507zM16.062 28.228h-.006c-2.319 0-4.489-.64-6.342-1.753l.056.031-.451-.267-4.675 1.227 1.247-4.559-.294-.467a12.23 12.23 0 0 1-1.889-6.565c0-6.822 5.531-12.353 12.353-12.353s12.353 5.531 12.353 12.353-5.53 12.353-12.353 12.353zm6.776-9.251c-.371-.186-2.197-1.083-2.537-1.208-.341-.124-.589-.185-.837.187-.246.371-.958 1.207-1.175 1.455-.216.249-.434.279-.805.094a10.23 10.23 0 0 1-2.997-1.852l.01.009a11.236 11.236 0 0 1-2.037-2.521l-.028-.052c-.216-.371-.023-.572.162-.757.167-.166.372-.434.557-.65.146-.179.271-.384.366-.604l.006-.017a.678.678 0 0 0-.033-.653l.002.003c-.094-.186-.836-2.014-1.145-2.758-.302-.724-.609-.625-.836-.637-.216-.01-.464-.012-.712-.012-.395.01-.746.188-.988.463l-.001.002a4.153 4.153 0 0 0-1.299 3.102v-.004a7.233 7.233 0 0 0 1.527 3.857l-.012-.015a16.693 16.693 0 0 0 6.251 5.564l.094.043c.548.248 1.25.513 1.968.74l.149.041a5.103 5.103 0 0 0 2.368.143l-.031.004a3.837 3.837 0 0 0 2.497-1.749l.009-.017a3.122 3.122 0 0 0 .214-1.784l.003.019c-.092-.155-.34-.247-.712-.434z"/></svg></svg>