<?xml version="1.0" encoding="utf-8"?><svg viewBox="0 0 88 24" xmlns="http://www.w3.org/2000/svg" xmlns:xlink="http://www.w3.org/1999/xlink"><style>:root>svg{display:none}:root>svg:target{display:block}</style><svg fill="none" viewBox="0 0 41 16" id="icon-arrow-prev" xmlns="http://www.w3.org/2000/svg"><path d="M.293 7.293a1 1 0 0 0 0 1.414l6.364 6.364a1 1 0 0 0 1.414-1.414L2.414 8l5.657-5.657A1 1 0 0 0 6.657.93L.293 7.293ZM41 7H1v2h40V7Z" fill="#fff"/></svg><svg fill="none" viewBox="0 0 29 16" id="icon-average-arrow" xmlns="http://www.w3.org/2000/svg"><path d="M28.707 8.707a1 1 0 0 0 0-1.414L22.343.929a1 1 0 1 0-1.414 1.414L26.586 8l-5.657 5.657a1 1 0 0 0 1.414 1.414l6.364-6.364ZM0 9h28V7H0v2Z" fill="currentColor"/></svg><svg fill="none" viewBox="0 0 24 24" id="icon-basket" xmlns="http://www.w3.org/2000/svg"><path d="M16 7.385c0 2.029-1.589 3.634-3.5 3.634S9 9.414 9 7.385c0-2.03 1.589-3.635 3.5-3.635S16 5.355 16 7.385Z" fill="#667E71" stroke="#fff" stroke-width="1.5"/><path fill="#667E71" stroke="#fff" stroke-width="1.5" d="M4.75 8.135h15.5V21.25H4.75z"/><rect x="15.334" y="7.385" width="1.417" height="4.385" rx=".708" fill="#fff"/><rect x="8.25" y="7.385" width="1.417" height="4.385" rx=".708" fill="#fff"/></svg><svg fill="none" viewBox="0 0 53 16" id="icon-btn-slider" xmlns="http://www.w3.org/2000/svg"><path d="M52.707 8.707a1 1 0 0 0 0-1.414L46.343.929a1 1 0 1 0-1.414 1.414L50.586 8l-5.657 5.657a1 1 0 0 0 1.414 1.414l6.364-6.364ZM0 9h52V7H0v2Z" fill="#fff"/></svg><svg fill="none" viewBox="0 0 30 16" id="icon-burger" xmlns="http://www.w3.org/2000/svg"><path fill="#fff" d="M0 0h30v1.778H0zm0 7.111h30v1.778H0zm0 7.112h30v1.778H0z"/></svg><svg fill="none" viewBox="0 0 16 16" id="icon-close" xmlns="http://www.w3.org/2000/svg"><path d="M0 1.6 1.6 0 8 6.4 14.4 0 16 1.6 9.6 8l6.4 6.4-1.6 1.6L8 9.6 1.6 16 0 14.4 6.4 8 0 1.6Z" fill="#667E71"/></svg><svg fill="none" viewBox="0 0 18 18" id="icon-cross" xmlns="http://www.w3.org/2000/svg"><path fill-rule="evenodd" clip-rule="evenodd" d="M.213.213a.725.725 0 0 1 1.027 0L9 7.973l7.76-7.76a.725.725 0 0 1 1.027 0 .726.726 0 0 1 0 1.026L10.027 9l7.76 7.76a.726.726 0 0 1-1.026 1.027L9 10.027l-7.76 7.76a.726.726 0 0 1-1.027-1.026L7.973 9 .213 1.24a.726.726 0 0 1 0-1.027Z" fill="currentColor"/></svg><svg fill="none" viewBox="0 0 88 16" id="icon-long-arrow" xmlns="http://www.w3.org/2000/svg"><path d="M87.707 8.707a1 1 0 0 0 0-1.414L81.343.929a1 1 0 1 0-1.414 1.414L85.586 8l-5.657 5.657a1 1 0 0 0 1.414 1.414l6.364-6.364ZM0 9h87V7H0v2Z" fill="currentColor"/></svg><svg fill="none" viewBox="0 0 8 12" id="icon-pagination-prev" xmlns="http://www.w3.org/2000/svg"><path d="m7 11.25-5-5 5-5" stroke="currentColor" stroke-width="1.5"/></svg><svg fill="none" viewBox="0 0 24 24" id="icon-person" xmlns="http://www.w3.org/2000/svg"><path d="M19 20c0-3.007-2.91-5.444-6.5-5.444S6 16.993 6 20" stroke="#fff" stroke-width="1.5" stroke-linecap="round" stroke-linejoin="round"/><circle cx="12.5" cy="8.5" r="3.75" stroke="#fff" stroke-width="1.5"/></svg><svg fill="none" viewBox="0 0 24 24" id="icon-search" xmlns="http://www.w3.org/2000/svg"><circle cx="11.077" cy="11.077" r="7.385" stroke="#fff" stroke-width="1.846"/><path d="m17.077 16.616 5.539 5.538" stroke="#fff" stroke-width="1.846" stroke-linecap="round"/></svg><svg fill="none" viewBox="0 0 10 17" id="icon-small-arrow" xmlns="http://www.w3.org/2000/svg"><path d="m1 1 7.5 7.5L1 16" stroke="currentColor" stroke-width="2"/></svg><svg fill="none" viewBox="0 0 16 22" id="icon-up" xmlns="http://www.w3.org/2000/svg"><path d="M9.031.585a1.444 1.444 0 0 0-.477-.303 1.358 1.358 0 0 0-1.097 0c-.178.069-.34.172-.477.303L1.202 6.363a1.45 1.45 0 0 0 2.051 2.051l3.308-3.322v15.297a1.444 1.444 0 1 0 2.889 0V5.092l3.308 3.322a1.45 1.45 0 0 0 2.05-2.051L9.032.585Z" fill="currentColor"/></svg></svg>